<?xml version="1.0" encoding="utf-8"?>
<!-- Generator: Adobe Illustrator 24.3.0, SVG Export Plug-In . SVG Version: 6.00 Build 0)  -->
<svg version="1.1" id="Laag_1" xmlns="http://www.w3.org/2000/svg" xmlns:xlink="http://www.w3.org/1999/xlink" x="0px" y="0px"
	 viewBox="0 0 250.26 102.82" style="enable-background:new 0 0 250.26 102.82;" xml:space="preserve">
<style type="text/css">
	.st0{fill:#FFFFFF;}
</style>
<g>
	<path class="st0" d="M119.27,77.67h1.29v9.84h-1.29V77.67z"/>
	<path class="st0" d="M123.1,87.52v-9.84h1.22l4.12,5.46c0.57,0.75,1.14,1.52,1.7,2.3l0.03-0.01c-0.01-0.86-0.03-1.85-0.03-2.8
		v-4.95h1.25v9.84h-1.22l-4.12-5.47c-0.57-0.75-1.14-1.52-1.7-2.3l-0.03,0.01c0.01,0.86,0.03,1.85,0.03,2.8v4.95H123.1z"/>
	<path class="st0" d="M133.94,77.67h5.82v1.17h-4.53v3.18h3.98v1.13h-3.98v4.36h-1.29V77.67z"/>
	<path class="st0" d="M146.28,77.52c2.86,0,5,2.22,5,5.07c0,2.86-2.15,5.07-5,5.07c-2.85,0-5-2.22-5-5.07
		C141.28,79.74,143.42,77.52,146.28,77.52z M146.28,86.47c2.15,0,3.71-1.71,3.71-3.88c0-2.16-1.56-3.87-3.71-3.87
		s-3.71,1.71-3.71,3.87C142.57,84.76,144.13,86.47,146.28,86.47z"/>
	<path class="st0" d="M153.26,77.67h2.66c0.99,0,1.94,0.04,2.75,0.49c0.82,0.45,1.36,1.21,1.36,2.3c0,1.06-0.52,1.86-1.26,2.31
		c-0.35,0.22-0.72,0.34-1.13,0.41l3.15,4.34h-1.56l-3-4.21h-1.67v4.21h-1.29V77.67z M156.22,82.24c0.87,0,1.48-0.11,1.93-0.45
		c0.37-0.27,0.58-0.68,0.58-1.22c0-0.62-0.29-1.12-0.8-1.4c-0.53-0.29-1.16-0.33-2.11-0.33h-1.28v3.4H156.22z"/>
	<path class="st0" d="M164.95,81.77c-0.45-0.64-0.88-1.29-1.32-1.94l-0.03,0.01c0.01,0.58,0.03,1.33,0.03,2.13v5.55h-1.25v-9.84
		h1.25l3.49,5l3.49-5h1.24v9.84h-1.29v-5.55c0-0.8,0.01-1.55,0.03-2.13l-0.03-0.01c-0.44,0.65-0.87,1.31-1.32,1.94l-2.15,3.07
		L164.95,81.77z"/>
	<path class="st0" d="M177.43,77.67h1.24l4.07,9.84h-1.39l-1.1-2.75h-4.43l-1.12,2.75h-1.32L177.43,77.67z M176.26,83.64h3.54
		l-0.8-2.04c-0.31-0.79-0.64-1.63-0.94-2.43h-0.03c-0.3,0.8-0.63,1.63-0.97,2.47L176.26,83.64z"/>
	<path class="st0" d="M185.46,78.84h-3.3v-1.17h7.9v1.17h-3.3v8.67h-1.29V78.84z"/>
	<path class="st0" d="M191.78,77.67h1.29v9.84h-1.29V77.67z"/>
	<path class="st0" d="M200.19,77.52c1.03,0,2,0.26,2.77,0.69v1.41c-0.73-0.54-1.74-0.91-2.79-0.91c-2.24,0-3.82,1.69-3.82,3.87
		c0,2.19,1.58,3.88,3.93,3.88c1.09,0,2.05-0.37,2.83-0.99v1.43c-0.79,0.5-1.86,0.76-2.9,0.76c-2.99,0-5.15-2.16-5.15-5.04
		C195.07,79.82,197.11,77.52,200.19,77.52z"/>
	<path class="st0" d="M208.23,77.67h1.24l4.07,9.84h-1.39l-1.1-2.75h-4.43l-1.12,2.75h-1.32L208.23,77.67z M207.06,83.64h3.54
		l-0.8-2.04c-0.31-0.79-0.64-1.63-0.94-2.43h-0.03c-0.3,0.8-0.63,1.63-0.97,2.47L207.06,83.64z"/>
</g>
<g>
	<g>
		<path class="st0" d="M207.74,17.29v7.17h9.56v7.77c3.06-0.8,5.94-2.19,8.3-4.06V17.29H207.74z"/>
	</g>
	<g>
		<path class="st0" d="M35.45,58.09c1.45-0.38,2.82-1.04,3.94-1.93v-5.17h-8.48v3.41h4.54V58.09z"/>
	</g>
</g>
<g>
	<rect x="73.6" y="49.66" class="st0" width="11.96" height="5.04"/>
</g>
<g>
	<g>
		<path class="st0" d="M106.35,65.27c-1.09,0.64-3.06,1.14-4.94,1.14c-2.12,0-4.4-0.64-5.93-2.37c-1.24-1.33-1.98-3.36-1.98-6.97
			V46.64h-4.25v-5.09h4.25v-6.47l5.98-1.04v7.51h6.87v5.09h-6.87v9.58c0,2.72,0.49,4.99,3.21,4.99c1.28,0,2.67-0.49,3.66-1.04V65.27
			z"/>
	</g>
	<g>
		<path class="st0" d="M127.55,51.19c-0.44-3.66-3.11-5.34-5.83-5.34c-2.77,0-5.53,1.68-6.27,5.34H127.55z M115.44,55.34
			c0.74,4.05,3.95,6.13,8.05,6.13c3.06,0,5.93-1.14,8.3-2.82v5.48c-2.27,1.43-5.73,2.27-8.89,2.27c-7.81,0-13.54-5.04-13.54-12.65
			c0-7.71,5.78-12.75,12.4-12.75c6.03,0,11.36,4.1,11.36,11.91c0,0.79-0.05,1.78-0.15,2.42H115.44z"/>
	</g>
	<g>
		<path class="st0" d="M151.81,56.08c-1.09-0.3-2.57-0.49-3.76-0.49c-2.47,0-4.89,0.79-4.89,3.16c0,1.98,1.73,2.92,3.85,2.92
			c1.83,0,3.61-0.64,4.79-1.48V56.08z M152.75,64.08c-1.48,1.19-4,2.32-7.21,2.32c-1.98,0-4-0.44-5.63-1.63
			c-1.68-1.24-2.72-3.16-2.72-5.58c0-2.67,1.29-4.64,3.11-5.88c1.83-1.24,4.3-1.68,6.82-1.68c1.68,0,3.21,0.2,4.69,0.54v-1.43
			c0-1.48-0.4-2.57-1.19-3.31c-0.89-0.79-2.27-1.19-4.1-1.19c-2.92,0-5.43,0.99-7.31,2.17v-5.43c1.93-1.09,4.74-1.98,8.2-1.98
			c3.16,0,5.98,0.74,7.81,2.27c1.63,1.38,2.57,3.46,2.57,6.47v9.34c0,1.33,0.49,2.27,1.68,2.27c0.44,0,0.94-0.15,1.33-0.35v4.69
			c-0.74,0.35-1.78,0.59-2.96,0.59c-1.98,0-3.85-0.69-4.99-2.22H152.75z"/>
	</g>
	<g>
		<path class="st0" d="M184.66,64.58c-2.22,1.24-5.04,1.83-7.61,1.83c-7.81,0-13.44-5.34-13.44-12.6c0-7.61,6.13-12.8,13.74-12.8
			c2.62,0,5.04,0.64,6.92,1.58v5.83c-2.12-1.38-4.5-2.22-6.82-2.22c-4.69,0-7.81,3.31-7.81,7.56c0,4.35,3.26,7.41,7.9,7.41
			c2.57,0,5.19-0.89,7.11-2.42V64.58z"/>
	</g>
	<g>
		<path class="st0" d="M190.49,28.12h5.98v16.06l0.1,0.05c1.98-1.83,4.74-3.21,7.95-3.21c2.62,0,4.89,0.89,6.42,2.57
			c1.43,1.53,2.08,3.56,2.08,7.16v15.12h-5.98V51.78c0-2.27-0.3-3.36-0.99-4.15c-0.79-0.94-1.88-1.33-3.16-1.33
			c-2.42,0-4.84,1.38-6.42,3.06v16.5h-5.98V28.12z"/>
	</g>
	<g>
		<path class="st0" d="M56.4,61.17c4.15,0,7.21-3.26,7.21-7.46c0-4.2-3.06-7.46-7.21-7.46c-4.15,0-7.21,3.26-7.21,7.46
			C49.18,57.91,52.25,61.17,56.4,61.17 M56.4,41.01c7.56,0,13.19,5.53,13.19,12.7c0,7.16-5.63,12.7-13.19,12.7
			s-13.19-5.53-13.19-12.7C43.21,46.54,48.84,41.01,56.4,41.01"/>
	</g>
	<g>
		<path class="st0" d="M39.39,64.48c-2.22,1.24-5.04,1.83-7.61,1.83c-7.81,0-13.44-5.34-13.44-12.6c0-7.61,6.13-12.8,13.74-12.8
			c2.62,0,5.04,0.64,6.92,1.58v5.83c-2.12-1.38-4.5-2.22-6.82-2.22c-4.69,0-7.81,3.31-7.81,7.56c0,4.35,3.26,7.41,7.9,7.41
			c2.57,0,5.19-0.89,7.11-2.42V64.48z"/>
	</g>
</g>
</svg>
