<?xml version="1.0" encoding="utf-8"?>
<!-- Generator: Adobe Illustrator 24.3.0, SVG Export Plug-In . SVG Version: 6.00 Build 0)  -->
<svg version="1.1" id="Layer_1" xmlns="http://www.w3.org/2000/svg" xmlns:xlink="http://www.w3.org/1999/xlink" x="0px" y="0px"
	 viewBox="0 0 632 446" style="enable-background:new 0 0 632 446;" xml:space="preserve" fill="#642882" fill-opacity="0.15">
<style type="text/css">
	.st0{fill-rule:evenodd;clip-rule:evenodd;}
</style>
<g>
	<path d="M598.08,162.75l-16.01,3.48l-0.62-2.84c-0.26-1.2-1.53-2.02-2.73-1.76c-1.2,0.26-2.02,1.53-1.76,2.73l0.62,2.84
		l-16.01,3.48c-1.65,0.36-2.7,2-2.34,3.64c0.36,1.65,2,2.7,3.64,2.34l16.01-3.48l1.11,5.08l-0.45,0.1c-1.2,0.26-1.9,1.36-1.64,2.55
		l1.5,6.88l-20.49,4.46c-2.54,0.55-6.77-0.88-10.4-2.44c-5.2-2.31-5.14-4.21-10.83-2.97l-10.92,2.38c-5.69,1.24-4.69,2.9-8.62,7.2
		c-2.66,2.93-5.91,5.99-8.45,6.54l-20.5,4.46l-1.5-6.88c-0.26-1.2-1.36-1.9-2.55-1.64l-0.45,0.1l-1.11-5.08l16.01-3.48
		c1.65-0.36,2.7-2,2.34-3.64c-0.36-1.65-2-2.7-3.64-2.34l-16.01,3.48l-0.62-2.84c-0.26-1.2-1.53-2.02-2.73-1.76
		c-1.2,0.26-2.02,1.53-1.76,2.73l0.62,2.84l-16.01,3.48c-1.65,0.36-2.7,2-2.34,3.64c0.36,1.65,2,2.7,3.64,2.34l16.01-3.48l1.11,5.08
		l-0.45,0.1c-1.2,0.26-1.9,1.36-1.64,2.55l4.46,20.5c0.26,1.2,1.36,1.9,2.55,1.64l5.24-1.14c1.2-0.26,1.9-1.36,1.64-2.55l-1.14-5.24
		l20.5-4.46c1.79-0.39,4.43,0.92,7.35,2.79c-6.75,5.7-11.48,13.47-13.47,22.36c-0.36,1.96,0.85,3.89,2.84,4.4
		c1.96,0.36,3.89-0.85,4.4-2.84c1.58-7.87,6.06-14.64,12.1-19.25c1.56,1.39,2.93,2.66,3.9,3.54c1.19,1.15,3.03,1.69,4.68,1.33
		l12.27-2.67c1.65-0.36,3.09-1.62,3.7-3.16c0.49-1.36,1.21-3.08,2.08-4.84c7.57,1.65,14.31,5.98,19.01,12.48
		c0.89,1.21,2.4,1.67,3.75,1.38c0.45-0.1,1.01-0.38,1.43-0.62c1.63-1.14,2.04-3.58,0.75-5.18c-5.35-7.3-13.03-12.36-21.54-14.74
		c1.72-2.88,3.73-5.2,5.52-5.59l20.5-4.46l1.14,5.24c0.26,1.2,1.36,1.9,2.55,1.64l5.24-1.14c1.2-0.26,1.9-1.36,1.64-2.55l-4.46-20.5
		c-0.26-1.2-1.36-1.9-2.55-1.64l-0.45,0.1l-1.11-5.08l16.01-3.48c1.65-0.36,2.7-2,2.34-3.64
		C601.36,163.44,599.73,162.39,598.08,162.75L598.08,162.75z"/>
</g>
<g>
	<g>
		<path d="M551.91,403.07c-2.86,0.22-5.82,0.33-8.68,0.33c-12.52,0-26.47-2.09-34.71-7.36v14.61c0,6.48,15.6,11.64,34.71,11.64
			c3.18,0,6.15-0.11,9.01-0.44c-0.22-0.99-0.44-2.09-0.44-3.08v-15.71L551.91,403.07z"/>
		<path d="M561.02,375.39c-5.71,1.1-11.86,1.54-17.69,1.54c-12.52,0-26.47-2.09-34.71-7.36v14.61c-0.11,6.48,15.49,11.75,34.6,11.75
			c2.96,0,5.93-0.11,8.68-0.44v-4.72c0-5.71,3.84-10.55,9.01-12.08l0-3.3L561.02,375.39z"/>
		<path d="M508.52,343.1v14.61c0,6.48,15.49,11.75,34.71,11.75c6.92,0,13.4-0.66,18.78-1.87c2.42-6.92,8.46-12.19,15.81-13.29
			l0-11.2c-8.24,5.27-22.19,7.36-34.6,7.36C530.71,350.46,516.87,348.37,508.52,343.1L508.52,343.1z"/>
		<path d="M577.93,331.35c0,6.49-15.54,11.75-34.71,11.75c-19.17,0-34.71-5.26-34.71-11.75c0-6.49,15.54-11.75,34.71-11.75
			C562.39,319.6,577.93,324.86,577.93,331.35"/>
		<path d="M606.05,385.72h-3.96v-11.64c0-7.03-5.71-12.74-12.74-12.74h-8.24c-7.03,0-12.74,5.71-12.74,12.74v11.64h-3.96
			c-2.86,0-5.05,2.31-5.05,5.05v28.01c0,2.86,2.31,5.05,5.05,5.05h41.52c2.86,0,5.05-2.31,5.05-5.05l0-28.01
			C611.1,388.02,608.8,385.72,606.05,385.72L606.05,385.72z M587.82,405.05v6.48c0,1.43-1.1,2.53-2.53,2.53s-2.53-1.1-2.53-2.53
			v-6.48c-1.54-0.88-2.53-2.53-2.53-4.39c0-2.86,2.31-5.16,5.16-5.16c2.86,0,5.16,2.31,5.16,5.16
			C590.35,402.52,589.36,404.17,587.82,405.05L587.82,405.05z M592.98,385.72H577.5v-11.64c0-1.98,1.65-3.63,3.63-3.63h8.24
			c1.98,0,3.63,1.65,3.63,3.63L592.98,385.72z"/>
	</g>
</g>
<g>
	<g>
		<path d="M270.64,382.71h26.48v30.73h-26.48V382.71z"/>
		<path d="M270.64,319.15h26.48v30.73h-26.48V319.15z"/>
		<path d="M334.21,382.71h26.48v30.73h-26.48V382.71z"/>
		<path d="M270.64,256.11h26.48v30.73h-26.48V256.11z"/>
		<path d="M270.64,193.09h26.48v30.73h-26.48V193.09z"/>
		<path d="M334.21,319.15h26.48v30.73h-26.48V319.15z"/>
		<path d="M334.21,193.09h26.48v30.73h-26.48V193.09z"/>
		<path d="M334.21,256.11h26.48v30.73h-26.48V256.11z"/>
		<path d="M397.23,161.3c0-3.18-2.65-5.3-5.3-5.3l-152.54,0.01c-3.18,0-5.3,2.12-5.3,5.3v284.44h163.15L397.23,161.3z
			 M307.72,418.21c0,2.65-2.65,5.3-5.3,5.3h-37.07c-3.18,0-5.3-2.65-5.3-5.3V376.9c0-3.18,2.12-5.3,5.3-5.3h37.07
			c2.65,0,5.3,2.12,5.3,5.3V418.21z M307.72,355.17c0,3.18-2.65,5.3-5.3,5.3h-37.07c-3.18,0-5.3-2.12-5.3-5.3v-41.31
			c0-3.18,2.12-5.3,5.3-5.3h37.07c2.65,0,5.3,2.12,5.3,5.3V355.17z M307.72,292.14c0,2.65-2.65,5.3-5.3,5.3h-37.07
			c-3.18,0-5.3-2.65-5.3-5.3v-41.31c0-3.18,2.12-5.3,5.3-5.3h37.07c2.65,0,5.3,2.12,5.3,5.3V292.14z M307.72,228.57
			c0,3.18-2.65,5.3-5.3,5.3h-37.07c-3.18,0-5.3-2.12-5.3-5.3v-40.78c0-2.65,2.12-5.3,5.3-5.3h37.07c2.65,0,5.3,2.65,5.3,5.3V228.57z
			 M371.29,418.21c0,2.65-2.65,5.3-5.3,5.3h-37.07c-3.18,0-5.3-2.65-5.3-5.3V376.9c0-3.18,2.12-5.3,5.3-5.3h37.07
			c2.65,0,5.3,2.12,5.3,5.3V418.21z M371.29,355.17c0,3.18-2.65,5.3-5.3,5.3h-37.07c-3.18,0-5.3-2.12-5.3-5.3v-41.31
			c0-3.18,2.12-5.3,5.3-5.3h37.07c2.65,0,5.3,2.12,5.3,5.3V355.17z M371.29,292.14c0,2.65-2.65,5.3-5.3,5.3h-37.07
			c-3.18,0-5.3-2.65-5.3-5.3v-41.31c0-3.18,2.12-5.3,5.3-5.3h37.07c2.65,0,5.3,2.12,5.3,5.3V292.14z M371.29,228.57
			c0,3.18-2.65,5.3-5.3,5.3h-37.07c-3.18,0-5.3-2.12-5.3-5.3v-40.78c0-2.65,2.12-5.3,5.3-5.3h37.07c2.65,0,5.3,2.65,5.3,5.3V228.57z
			"/>
		<path d="M476.16,269.36c0-1.58-0.53-3.18-2.12-4.23l-55.62-47.14c-1.58-1.58-3.71-1.58-5.83-0.53c-2.12,1.07-3.18,2.65-3.18,4.77
			v223.52h66.21l0.01-176.38L476.16,269.36z M451.27,423.49h-16.41c-2.65,0-5.3-2.65-5.3-5.3c0-3.18,2.65-5.3,5.3-5.3h16.41
			c2.65,0,5.3,2.12,5.3,5.3C456.57,421.37,454.44,423.49,451.27,423.49z M451.27,381.65h-16.41c-2.65,0-5.3-2.65-5.3-5.3
			c0-2.65,2.65-5.3,5.3-5.3h16.41c2.65,0,5.3,2.65,5.3,5.3C456.57,379,454.44,381.65,451.27,381.65z M451.27,339.27h-16.41
			c-2.65,0-5.3-2.12-5.3-5.3s2.65-5.3,5.3-5.3h16.41c2.65,0,5.3,2.12,5.3,5.3C456.57,336.63,454.44,339.27,451.27,339.27z
			 M451.27,296.9h-16.41c-2.65,0-5.3-2.12-5.3-5.3s2.65-5.3,5.3-5.3h16.41c2.65,0,5.3,2.12,5.3,5.3S454.44,296.9,451.27,296.9z"/>
		<path d="M221.39,222.22c0-2.12-1.07-3.71-3.18-4.77c-2.12-1.07-4.23-0.53-5.83,0.53l-55.61,47.14c-1.07,1.07-1.58,2.65-1.58,4.23
			v176.91h66.21L221.39,222.22z M196.49,423.49h-16.43c-3.18,0-5.3-2.65-5.3-5.3c0-3.18,2.12-5.3,5.3-5.3h16.41
			c3.18,0,5.3,2.12,5.3,5.3C201.79,421.37,199.66,423.49,196.49,423.49z M196.49,381.65h-16.43c-3.18,0-5.3-2.65-5.3-5.3
			c0-2.65,2.12-5.3,5.3-5.3h16.41c3.18,0,5.3,2.65,5.3,5.3C201.79,379,199.66,381.65,196.49,381.65z M196.49,339.27h-16.43
			c-3.18,0-5.3-2.12-5.3-5.3s2.12-5.3,5.3-5.3h16.41c3.18,0,5.3,2.12,5.3,5.3C201.79,336.63,199.66,339.27,196.49,339.27z
			 M196.49,296.9h-16.43c-3.18,0-5.3-2.12-5.3-5.3s2.12-5.3,5.3-5.3h16.41c3.18,0,5.3,2.12,5.3,5.3
			C201.79,294.78,199.66,296.9,196.49,296.9z"/>
	</g>
</g>
<g>
	<g>
		<path d="M92.37,186.75c-11.98,0-21.67,9.68-21.67,21.67c0,11.98,9.68,21.67,21.67,21.67s21.67-9.68,21.67-21.67
			S104.35,186.75,92.37,186.75L92.37,186.75z M107.74,200.55h-7.02c-0.48-3.15-1.21-6.05-2.18-8.35
			C102.66,193.77,105.81,196.79,107.74,200.55z M109.8,208.41c0,1.21-0.12,2.42-0.36,3.51h-8.23c0.12-1.21,0.12-2.3,0.12-3.51
			c0-1.21,0-2.3-0.12-3.51h8.23C109.68,205.99,109.8,207.2,109.8,208.41z M92.37,225.84c-0.97,0-3.03-3.27-4-9.56h7.99
			C95.39,222.46,93.34,225.84,92.37,225.84z M87.89,211.92c-0.12-1.09-0.12-2.3-0.12-3.51s0-2.42,0.12-3.51h8.96
			c0.12,1.09,0.12,2.3,0.12,3.51s0,2.42-0.12,3.51H87.89z M74.94,208.41c0-1.21,0.12-2.42,0.36-3.51h8.23
			c-0.12,1.21-0.12,2.3-0.12,3.51s0,2.3,0.12,3.51H75.3C75.06,210.83,74.94,209.62,74.94,208.41z M92.37,190.98
			c0.97,0,3.03,3.27,4,9.56h-7.99C89.34,194.37,91.4,190.98,92.37,190.98z M86.19,192.2c-0.97,2.3-1.69,5.21-2.18,8.35h-7.02
			C78.93,196.79,82.2,193.76,86.19,192.2z M76.99,216.28h7.02c0.48,3.15,1.21,6.05,2.18,8.35
			C82.08,223.06,78.93,220.04,76.99,216.28z M98.54,224.63c0.97-2.3,1.69-5.21,2.18-8.35h7.02
			C105.81,220.04,102.66,223.06,98.54,224.63z"/>
		<path d="M135.58,194.13c-1.82,0-3.51,0.36-5.08,0.97l-7.63-13.19c3.27-2.66,5.32-6.53,5.32-11.02c0-7.87-6.42-14.29-14.29-14.29
			c-7.14,0-12.95,5.21-14.04,12.11H84.74c-1.09-6.78-6.9-12.11-14.04-12.11c-7.87,0-14.29,6.42-14.29,14.29
			c0,4.48,2.06,8.35,5.32,11.02l-7.63,13.19c-1.57-0.61-3.27-0.97-5.08-0.97c-7.74,0-14.16,6.42-14.16,14.29
			c0,7.87,6.42,14.29,14.29,14.29c1.82,0,3.51-0.36,5.08-0.97l7.63,13.19c-3.27,2.66-5.32,6.53-5.32,11.02
			c0,7.87,6.42,14.29,14.29,14.29c7.14,0,12.95-5.21,14.04-12.11H100c1.09,6.78,6.9,12.11,14.04,12.11
			c7.87,0,14.29-6.42,14.29-14.29c0-4.48-2.06-8.35-5.32-11.02l7.63-13.19c1.57,0.61,3.27,0.97,5.08,0.97
			c7.87,0,14.29-6.42,14.29-14.29C149.87,200.55,143.45,194.13,135.58,194.13L135.58,194.13z M135.58,201.27
			c2.3,0,4.24,1.94,4.24,4.24s-1.94,4.24-4.24,4.24s-4.24-1.94-4.24-4.24C131.47,203.21,133.28,201.27,135.58,201.27z
			 M113.92,163.87c2.3,0,4.24,1.94,4.24,4.24s-1.94,4.24-4.24,4.24c-2.3,0-4.24-1.94-4.24-4.24
			C109.68,165.68,111.61,163.87,113.92,163.87z M107.98,177.79c0.24-2.3,2.18-4,4.48-4h3.15c2.3,0,4.24,1.69,4.48,4l0.12,0.97
			c-1.69,1.33-3.75,2.18-6.18,2.18c-2.3,0-4.48-0.85-6.18-2.18L107.98,177.79z M70.82,163.87c2.3,0,4.24,1.94,4.24,4.24
			s-1.94,4.24-4.24,4.24c-2.3,0-4.24-1.94-4.24-4.24C66.58,165.68,68.4,163.87,70.82,163.87z M64.77,177.79c0.24-2.3,2.18-4,4.48-4
			h3.15c2.3,0,4.24,1.69,4.48,4l0.12,0.97c-1.69,1.33-3.75,2.18-6.18,2.18c-2.3,0-4.48-0.85-6.18-2.18L64.77,177.79z M49.15,201.27
			c2.3,0,4.24,1.94,4.24,4.24s-1.94,4.24-4.24,4.24s-4.24-1.94-4.24-4.24C44.92,203.21,46.73,201.27,49.15,201.27z M49.15,218.34
			c-2.3,0-4.48-0.85-6.18-2.18l0.12-0.97c0.24-2.3,2.18-4,4.48-4h3.15c2.3,0,4.24,1.69,4.48,4l0.12,0.97
			C53.51,217.49,51.45,218.34,49.15,218.34L49.15,218.34z M70.82,255.75c-2.3,0-4.48-0.85-6.18-2.18l0.12-0.97
			c0.24-2.3,2.18-4,4.48-4h3.15c2.3,0,4.24,1.69,4.48,4l0.12,0.97C75.18,254.9,73.12,255.75,70.82,255.75L70.82,255.75z
			 M66.58,243.04c0-2.3,1.94-4.24,4.24-4.24c2.3,0,4.24,1.94,4.24,4.24s-1.94,4.24-4.24,4.24C68.4,247.27,66.58,245.33,66.58,243.04
			z M113.92,255.75c-2.3,0-4.48-0.85-6.18-2.18l0.12-0.97c0.24-2.3,2.18-4,4.48-4h3.15c2.3,0,4.24,1.69,4.48,4l0.12,0.97
			C118.39,254.9,116.34,255.75,113.92,255.75L113.92,255.75z M109.68,243.04c0-2.3,1.94-4.24,4.24-4.24s4.24,1.94,4.24,4.24
			s-1.94,4.24-4.24,4.24C111.61,247.27,109.68,245.33,109.68,243.04z M119.12,232.62c-1.57-0.61-3.39-0.97-5.21-0.97
			c-7.14,0-12.95,5.21-14.04,12.11H84.74c-1.09-6.78-6.9-12.11-14.04-12.11c-1.82,0-3.51,0.36-5.21,0.97l-7.63-13.19
			c3.4-2.54,5.45-6.54,5.45-11.02c0-4.48-2.06-8.47-5.32-11.02l7.62-13.19c1.57,0.61,3.39,0.97,5.21,0.97
			c7.14,0,12.95-5.21,14.04-12.11H100c1.09,6.78,6.9,12.11,14.04,12.11c1.82,0,3.51-0.36,5.21-0.97l7.63,13.19
			c-3.4,2.54-5.45,6.54-5.45,11.02c0,4.48,2.06,8.47,5.32,11.02L119.12,232.62z M135.58,218.34c-2.3,0-4.48-0.85-6.18-2.18
			l0.12-0.97c0.24-2.3,2.18-4,4.48-4l3.15,0c2.3,0,4.24,1.69,4.48,4l0.12,0.97C140.06,217.49,138,218.34,135.58,218.34
			L135.58,218.34z"/>
	</g>
</g>
<g>
	<g>
		<path d="M284.91,78.89h60.7c11.77,0,21.22-9.44,21.22-21.22c0-11.77-9.44-21.22-21.09-21.22c-1.6,0-3.07,0.24-4.66,0.49
			C336.29,27.5,326.6,21,315.32,21c-13.61,0-24.9,9.44-28.08,22.07c-0.74-0.12-1.47-0.24-2.33-0.24c-9.94,0-18.03,8.1-18.03,18.03
			C266.88,70.79,274.98,78.89,284.91,78.89L284.91,78.89z"/>
		<path d="M293,112.61h-7.6c-1.47-3.19-4.66-5.52-8.34-5.52c-5.03,0-9.2,4.05-9.2,9.2s4.05,9.2,9.2,9.2c3.8,0,6.99-2.21,8.34-5.52
			h11.28c1.96,0,3.68-1.6,3.68-3.68v-29.8H293V112.61z"/>
		<path d="M320.6,120.09v-33.6h-7.36v33.72c-3.19,1.47-5.52,4.66-5.52,8.34c0,5.03,4.05,9.2,9.2,9.2c5.15,0,9.2-4.05,9.2-9.2
			C326.11,124.75,323.79,121.56,320.6,120.09L320.6,120.09z"/>
		<path d="M356.77,107.09c-3.8,0-6.99,2.21-8.34,5.52h-7.6V86.49h-7.36v29.8c0,1.96,1.6,3.68,3.68,3.68h11.28
			c1.47,3.19,4.66,5.52,8.34,5.52c5.03,0,9.2-4.05,9.2-9.2C365.97,111.14,361.8,107.09,356.77,107.09z"/>
	</g>
</g>
<g>
	<path class="st0" d="M46.51,343.6h47.53c19.93,0,32.2,43.24,20.24,55.5c-10.12,9.81-31.28-12.88-43.85-12.27
		c-12.88-0.61-34.04,22.08-43.85,12.27C14.63,386.83,26.89,343.6,46.51,343.6L46.51,343.6z M43.14,357.7h8.59v7.67h7.67v8.59h-7.67
		v7.67h-8.59v-7.67h-7.67v-8.59h7.67V357.7z M85.76,358.62c2.76,0,5.21,2.15,5.21,4.91c0,3.07-2.45,5.21-5.21,5.21
		c-2.76,0-5.21-2.15-5.21-5.21C80.55,360.77,83,358.62,85.76,358.62z M100.18,370.58c2.76,0,4.91,2.15,4.91,4.91
		c0,3.07-2.15,5.21-4.91,5.21c-3.07,0-5.21-2.15-5.21-5.21C94.96,372.73,97.11,370.58,100.18,370.58z"/>
</g>
</svg>
