<?xml version="1.0" encoding="utf-8"?>
<!-- Generator: Adobe Illustrator 24.3.0, SVG Export Plug-In . SVG Version: 6.00 Build 0)  -->
<svg version="1.1" id="Layer_1" xmlns="http://www.w3.org/2000/svg" xmlns:xlink="http://www.w3.org/1999/xlink" x="0px" y="0px"
	 viewBox="0 0 632 446" style="enable-background:new 0 0 632 446;" xml:space="preserve" fill="#642882" fill-opacity="1">
<g>
	<g>
		<path d="M324,267.2c-1.5,0-2.8,1.2-2.8,2.8v17l-11.2,8.4c-1.2,0.9-1.5,2.6-0.6,3.9c0.6,0.7,1.4,1.1,2.2,1.1
			c0.6,0,1.1-0.2,1.6-0.6l12.3-9.2c0.7-0.5,1.1-1.3,1.1-2.2V270C326.8,268.5,325.6,267.2,324,267.2L324,267.2z"/>
		<path d="M402.6,446.3V273.9l-80.8-58.2L241,273.9v172.3h47.6v-55.8c0-18.4,14.9-33.2,33.2-33.2s33.2,14.9,33.2,33.2
			v55.8L402.6,446.3L402.6,446.3z M321.8,313.7c-15.3,0-27.6-12.4-27.6-27.6c0-15.3,12.3-27.6,27.6-27.6c15.3,0,27.6,12.4,27.6,27.6
			C349.4,301.4,337,313.7,321.8,313.7z"/>
		<path d="M493.7,301.3h-82.8v46.9h110.4c3.8,0,5.2-2.6,3-5.7L498,303.6C497.1,302.3,495.2,301.3,493.7,301.3
			L493.7,301.3z"/>
		<path d="M416,269.3c2.6,0,5.1-1.2,6.7-3.5c2.7-3.7,1.8-8.9-1.9-11.6l-94.2-67.4c-0.6-0.5-1.3-0.8-2.1-1v-18.6
			c13.9-2.5,31.9,8,49.8,2.1c0.4-0.1,0.7-0.5,0.7-0.9v-32.3c0-0.5-0.4-0.7-0.8-0.6c-20.1,6.6-40.3-7.5-54.7-0.5
			c-0.3,0.1-0.5,0.5-0.5,0.8v50c-0.7,0.3-1.4,0.6-2.1,1l-94.2,67.4c-3.7,2.7-4.6,7.8-1.9,11.6c2.7,3.7,7.9,4.6,11.6,1.9l89.4-64
			l89.4,64C412.6,268.8,414.3,269.3,416,269.3L416,269.3z"/>
		<path d="M512.3,356.5H410.9v89.7h101.4V356.5L512.3,356.5z M456.8,428.3c0,0.8-0.6,1.4-1.4,1.4h-22.1
			c-0.8,0-1.4-0.6-1.4-1.4v-22.1c0-0.8,0.6-1.4,1.4-1.4h22.1c0.8,0,1.4,0.6,1.4,1.4V428.3z M456.8,393.8c0,0.8-0.6,1.4-1.4,1.4
			h-22.1c-0.8,0-1.4-0.6-1.4-1.4v-22.1c0-0.8,0.6-1.4,1.4-1.4h22.1c0.8,0,1.4,0.6,1.4,1.4V393.8z M491.3,428.3
			c0,0.8-0.6,1.4-1.4,1.4h-22.1c-0.8,0-1.4-0.6-1.4-1.4v-22.1c0-0.8,0.6-1.4,1.4-1.4h22.1c0.8,0,1.4,0.6,1.4,1.4V428.3z
			 M491.3,393.8c0,0.8-0.6,1.4-1.4,1.4h-22.1c-0.8,0-1.4-0.6-1.4-1.4v-22.1c0-0.8,0.6-1.4,1.4-1.4h22.1c0.8,0,1.4,0.6,1.4,1.4V393.8
			z"/>
		<path d="M122.3,348.2h110.4v-46.9h-82.8c-1.5,0-3.5,1-4.3,2.3l-26.3,38.9C117.1,345.7,118.5,348.2,122.3,348.2
			L122.3,348.2z"/>
		<path d="M232.7,446.3v-89.7H131.3v89.7H232.7z M186.8,371.7c0-0.8,0.6-1.4,1.4-1.4h22.1c0.8,0,1.4,0.6,1.4,1.4v22.1
			c0,0.8-0.6,1.4-1.4,1.4h-22.1c-0.8,0-1.4-0.6-1.4-1.4V371.7z M186.8,406.2c0-0.8,0.6-1.4,1.4-1.4h22.1c0.8,0,1.4,0.6,1.4,1.4v22.1
			c0,0.8-0.6,1.4-1.4,1.4h-22.1c-0.8,0-1.4-0.6-1.4-1.4V406.2z M152.3,371.7c0-0.8,0.6-1.4,1.4-1.4h22.1c0.8,0,1.4,0.6,1.4,1.4v22.1
			c0,0.8-0.6,1.4-1.4,1.4h-22.1c-0.8,0-1.4-0.6-1.4-1.4V371.7z M152.3,406.2c0-0.8,0.6-1.4,1.4-1.4h22.1c0.8,0,1.4,0.6,1.4,1.4v22.1
			c0,0.8-0.6,1.4-1.4,1.4h-22.1c-0.8,0-1.4-0.6-1.4-1.4V406.2z"/>
	</g>
</g>
<g>
	<g>
		<path d="M487.9,56.8c-6,6-10.2,13.5-12,21.9c-1.7,7.8-1.2,15.9,1.3,23.4l-2.8,2.8l-25.6,0.3l0,0h-0.1h-0.1h-0.1h-0.1
			c0,0-0.1,0-0.1,0.1c0,0-0.1,0-0.1,0.1l0,0L417.9,130l-0.1,0.1c0,0-0.1,0-0.1,0.1c0,0,0,0.1-0.1,0.1c0,0,0,0.1-0.1,0.1v0.1v0.1v0.1
			v0.1v0.1v0.1l0,0v0.1v0.1v0.1c0,0,0,0,0,0.1c0,0.1,0.1,0.1,0.1,0.3l0,0c0.1,0.1,0.1,0.1,0.3,0.3c0,0,0,0,0.1,0l0.1,0.1h0.1
			c0.1,0,0.1,0,0.3,0c0,0,0,0,0.1,0c0.1,0,0.3,0,0.3,0h0.1l35.9-4.9l5.2,5.2l-4,4c-0.5,0.5-0.5,1.5,0,2l12.6,12.6
			c0.3,0.3,0.7,0.4,0.9,0.4c0.4,0,0.7-0.1,0.9-0.4l4-4l5.2,5.2l-4.9,35.9l0,0v0.3v0.1v0.1v0.1v0.1c0,0,0,0.1,0.1,0.1
			c0,0,0,0.1,0.1,0.1l0.1,0.1l0.1,0.1l0,0c0,0,0.1,0,0.1,0.1c0,0,0,0,0.1,0c0.1,0,0.1,0.1,0.3,0.1l0,0c0.1,0,0.1,0,0.3,0.1l0,0h0.1
			l0,0c0.1,0,0.1,0,0.3,0c0,0,0,0,0.1,0c0,0,0.1,0,0.1-0.1c0,0,0,0,0.1,0l0.1-0.1c0,0,0,0,0.1,0s0.1-0.1,0.1-0.1l0,0l24.6-30l0,0
			c0,0,0-0.1,0.1-0.1v-0.1v-0.1v-0.1V159v-0.1l0,0l0.3-25.6l2.8-2.8c4.5,1.6,9.3,2.3,14.1,2.3c3.2,0,6.2-0.4,9.4-1.1
			c8.4-1.7,15.9-6,21.9-12c8.4-8.4,13-19.5,13-31.3c0-11.8-4.6-23-13-31.3C533.1,39.5,505.1,39.5,487.9,56.8L487.9,56.8z
			 M529.4,79.2C529.4,79.4,529.4,79.4,529.4,79.2c0,0.1,0,0.3,0,0.3l0,0l-5.3,16.6c0,0,0,0,0,0.1l0,0c0,0.1-0.1,0.1-0.1,0.3l0,0
			c0,0.1-0.1,0.1-0.1,0.3l-25.4,25.4c-0.3,0.3-0.7,0.4-0.9,0.4c-0.4,0-0.7-0.1-0.9-0.4c-0.5-0.5-0.5-1.5,0-2l24.3-24.3l-9.3-9.3
			l-24.3,24.3c-0.5,0.5-1.5,0.5-2,0c-0.5-0.5-0.5-1.5,0-2l25.4-25.4c0,0,0.1,0,0.1-0.1c0,0,0.1,0,0.1-0.1h0.1c0,0,0.1,0,0.1-0.1l0,0
			l16.6-5.3l0,0h0.1h0.1h0.1h0.1h0.1h0.1l0,0c0,0,0,0,0.1,0c0,0,0.1,0,0.1,0.1c0,0,0.1,0,0.1,0.1c0,0,0.1,0,0.1,0.1
			c0,0,0,0.1,0.1,0.1c0,0,0.1,0,0.1,0.1l0.1,0.1c0,0,0,0.1,0.1,0.1v0.1c0,0,0,0,0,0.1l0,0v0.1v0.1L529.4,79.2z M491.1,114.8
			l19.5-19.5c0.5-0.5,1.5-0.5,2,0c0.5,0.5,0.5,1.5,0,2L493,116.8c-0.3,0.3-0.7,0.4-0.9,0.4c-0.4,0-0.7-0.1-0.9-0.4
			C490.5,116.1,490.5,115.2,491.1,114.8L491.1,114.8z M474.6,108.6l24,24l-4.5,4.5l-24-24L474.6,108.6z M468.1,115.1l24,24l-4.5,4.5
			l-23.9-24L468.1,115.1z M475.4,144.4L475.4,144.4l-12.6-12.6l0,0l-5.7-5.7l4.6-4.6l24,24l-4.6,4.6L475.4,144.4z"/>
		<path d="M556.8,51.9c0.4,0,0.7-0.1,0.9-0.4l4.8-4.8c0.5-0.5,0.5-1.5,0-2c-0.5-0.5-1.5-0.5-2,0l-4.8,4.8
			c-0.5,0.5-0.5,1.5,0,2C556,51.7,556.4,51.9,556.8,51.9L556.8,51.9z"/>
		<path d="M532.9,38.2c0.1,0,0.3,0,0.4,0c0.7,0,1.2-0.4,1.3-1.1l1.7-6.5c0.3-0.8-0.3-1.5-0.9-1.7
			c-0.8-0.3-1.5,0.3-1.7,0.9l-1.7,6.5C531.7,37.3,532.2,38.1,532.9,38.2L532.9,38.2z"/>
		<path d="M504.9,37.3c0.1,0.7,0.7,1.1,1.3,1.1c0.1,0,0.3,0,0.4,0c0.8-0.3,1.2-0.9,0.9-1.7l-1.7-6.5
			c-0.3-0.8-0.9-1.2-1.7-0.9c-0.8,0.3-1.2,0.9-0.9,1.7L504.9,37.3z"/>
		<path d="M481.8,51.5c0.3,0.3,0.7,0.4,0.9,0.4c0.3,0,0.7-0.1,0.9-0.4c0.5-0.5,0.5-1.5,0-2l-4.8-4.8
			c-0.5-0.5-1.5-0.5-2,0s-0.5,1.5,0,2L481.8,51.5z"/>
		<path d="M462.4,73.5l6.5,1.7c0.1,0,0.3,0,0.4,0c0.7,0,1.2-0.4,1.3-1.1c0.3-0.8-0.3-1.5-0.9-1.7l-6.5-1.7
			c-0.8-0.3-1.5,0.3-1.7,0.9C461.2,72.6,461.6,73.3,462.4,73.5L462.4,73.5z"/>
		<path d="M534.6,137.7c-0.3-0.8-0.9-1.2-1.7-0.9c-0.8,0.3-1.2,0.9-0.9,1.7l1.7,6.5c0.1,0.7,0.7,1.1,1.3,1.1
			c0.1,0,0.3,0,0.4,0c0.8-0.3,1.2-0.9,0.9-1.7L534.6,137.7z"/>
		<path d="M557.7,123.4c-0.5-0.5-1.5-0.5-2,0c-0.5,0.5-0.5,1.5,0,2l4.8,4.8c0.3,0.3,0.7,0.4,0.9,0.4
			c0.4,0,0.7-0.1,0.9-0.4c0.5-0.5,0.5-1.5,0-2L557.7,123.4z"/>
		<path d="M577.1,101.4l-6.5-1.7c-0.8-0.3-1.5,0.3-1.7,0.9c-0.3,0.8,0.3,1.5,0.9,1.7l6.5,1.7c0.1,0,0.3,0,0.4,0
			c0.7,0,1.2-0.4,1.3-1.1C578.3,102.3,577.9,101.5,577.1,101.4L577.1,101.4z"/>
		<path d="M570.3,75.2c0.1,0,0.3,0,0.4,0l6.5-1.7c0.8-0.3,1.2-0.9,0.9-1.7c-0.3-0.8-0.9-1.2-1.7-0.9l-6.5,1.7
			c-0.8,0.3-1.2,0.9-0.9,1.7C569.1,74.8,569.7,75.2,570.3,75.2L570.3,75.2z"/>
		<path d="M456.3,150.7c-0.5-0.5-1.5-0.5-2,0l-25.9,25.9c-0.5,0.5-0.5,1.5,0,2c0.3,0.3,0.7,0.4,0.9,0.4
			c0.4,0,0.7-0.1,0.9-0.4l25.9-25.9C456.8,152,456.8,151.2,456.3,150.7L456.3,150.7z"/>
		<path d="M428.5,165.1c-0.5,0.5-0.5,1.5,0,2c0.3,0.3,0.7,0.4,0.9,0.4c0.3,0,0.7-0.1,0.9-0.4l23-23c0.5-0.5,0.5-1.5,0-2
			s-1.5-0.5-2,0L428.5,165.1z"/>
		<path d="M429.6,156.6l22.3-22.3c0.5-0.5,0.5-1.5,0-2c-0.5-0.5-1.5-0.5-2,0l-22.3,22.3c-0.5,0.5-0.5,1.5,0,2
			c0.3,0.3,0.7,0.4,0.9,0.4C428.8,157,429.3,156.9,429.6,156.6L429.6,156.6z"/>
		<path d="M474.5,155.1c-0.5-0.5-1.5-0.5-2,0l-22.3,22.3c-0.5,0.5-0.5,1.5,0,2c0.3,0.3,0.7,0.4,0.9,0.4
			c0.3,0,0.7-0.1,0.9-0.4l22.3-22.3C475,156.4,475,155.6,474.5,155.1L474.5,155.1z"/>
		<path d="M464.6,153.5c-0.5-0.5-1.5-0.5-2,0l-23,23c-0.5,0.5-0.5,1.5,0,2c0.3,0.3,0.7,0.4,0.9,0.4
			c0.4,0,0.7-0.1,0.9-0.4l23-23C465.2,154.9,465.2,154,464.6,153.5L464.6,153.5z"/>
		<path d="M522.1,93.2l3.9-12l-12,3.9L522.1,93.2z"/>
	</g>
</g>
</svg>
