<?xml version="1.0" encoding="utf-8"?>
<!-- Generator: Adobe Illustrator 24.3.0, SVG Export Plug-In . SVG Version: 6.00 Build 0)  -->
<svg version="1.1" id="Layer_1" xmlns="http://www.w3.org/2000/svg" xmlns:xlink="http://www.w3.org/1999/xlink" x="0px" y="0px"
	 viewBox="0 0 221.3 47.5" style="enable-background:new 0 0 221.3 47.5;" xml:space="preserve">
<style type="text/css">
	.st0{fill:#154273;}
	.st1{fill:#373F47;}
</style>
<g>
	<rect x="21.8" y="20.6" class="st0" width="0.7" height="1.8"/>
	<path class="st0" d="M18.5,21.5c0.3-0.2,0.7-0.2,0.6,0.2c0,0-0.1,0.1-0.4,0.1c0,0,0,0.1,0,0.2c0,0-0.1,0.1,0,0.2
		c0,0,0.3-0.2,0.5-0.1c0.1,0.2,0,0.4-0.5,0.5c-0.6,0.1-1,0.3-1.1,1c0.5,0,0.8,0.2,1.2,0.4c0.6,0.3,1.2-0.1,1.2-0.1
		c-0.1-0.1-0.2-0.5,0.1-0.7c0.1,0.2,0.4,0.3,0.6,0.1c0,0,0,0,0,0c-0.3-0.2-0.3-0.4-0.2-0.7c0.1,0.2,0.5,0,0.5-0.1c0,0,0,0,0,0
		c-0.2,0.1-0.3-0.2-0.3-0.3c0-0.1,0.1-0.7-0.1-1c0.1-0.1,0.5-0.3,0.6-0.3c0,0,0,0,0-0.1c-0.2-0.1-0.6,0-0.6-0.1c0,0-0.1-0.6-0.1-0.6
		c0,0-0.5,0.3-0.5,0.3c-0.1,0-0.3-0.4-0.4-0.5c0,0-0.1,0,0,0c0.1,0.1,0.1,0.6,0.1,0.7c-0.5,0-0.6,0.1-0.6,0.3
		c-0.1,0-0.5,0.3-0.5,0.4c0,0,0,0.1,0.1,0.1C18.4,21.2,18.4,21.3,18.5,21.5z M19.3,20.9c-0.1,0.3-0.3,0.3-0.5,0.1
		C18.8,20.9,19,20.9,19.3,20.9z"/>
	<path class="st0" d="M9.8,18.3C9.7,18.1,9.5,18,9,18C9.1,18.5,9.5,18.6,9.8,18.3z"/>
	<path class="st0" d="M15.5,22.6l-0.3,0.4c-0.1,0.1,0.2,0.3,0.3,0.2l0.4-0.5c0,0,1.1,0.6,1.4,0.8c0-0.2,0.1-0.5,0.2-0.6
		c-0.3-0.1-1.1-0.3-1.1-0.3c0,0.1-0.2,0.1-0.2,0.1c-0.2,0-0.3-0.2-0.3-0.3c0,0,0,0,0,0c0,0,0.2,0.1,0.2,0l0.1-0.2l0.3,0.1l0.1-0.2
		L16.4,22l1.3-1.8c0,0,0-0.3,0-0.4c-0.1,0-0.4,0.1-0.4,0.1l-1.3,1.8l-0.2-0.2l-0.2,0.2l0.2,0.3l-0.1,0.2c-0.3-0.2-0.5,0-0.6,0.1
		c0,0,0,0,0,0c0.1,0,0.4-0.1,0.4,0.1c-0.3-0.1-0.5,0.1-0.5,0.2c0,0,0,0,0,0C15.2,22.5,15.4,22.5,15.5,22.6z"/>
	<path class="st0" d="M28.6,18c-0.5,0-0.8,0-0.8,0.3C28.1,18.6,28.5,18.5,28.6,18z"/>
	<path class="st0" d="M17.7,21.5C17.7,21.4,17.6,21.4,17.7,21.5c-0.1,0.3,0.1,0.5,0.3,0.5c0.3,0,0.3-0.2,0.7-0.3c0,0,0-0.1,0-0.1
		c0,0-0.3,0-0.5,0C17.9,21.7,17.7,21.6,17.7,21.5z"/>
	<path class="st0" d="M19.1,26.3C19.1,26.2,19.1,26.2,19.1,26.3c-0.2,0-0.4-0.3-0.2-0.6c-0.2-0.1-0.4-0.2-0.5-0.2
		c-0.7,0-1.3,0.8-1.4,0.9c-0.1,0.1-0.3,0.3-0.4,0.1c0,0,0,0,0,0c0,0.3,0.3,0.3,0.4,0.3c0,0,0,0,0,0c0,0.3,0.2,0.9,0.2,0.9
		c0,0-0.3,0.3-0.5,0.3c-0.1,0-0.2-0.3-0.4-0.3c-0.1,0-0.1,0-0.2,0.1c0,0,0,0,0,0c0.2,0,0.3,0.1,0.2,0.3c-0.2-0.2-0.5-0.1-0.5,0.2
		c0,0,0,0,0,0c0.1-0.2,0.4-0.1,0.4,0c-0.1,0-0.4,0.2-0.2,0.5c0,0,0,0,0,0c0-0.1,0-0.2,0.2-0.2c0.2,0,0.4,0.2,0.5,0
		c0.1,0.3,0.3,0.2,0.4,0.2c0,0,0,0,0,0c-0.1-0.1-0.2-0.2-0.2-0.2c0-0.2,0.4-0.4,0.5-0.4c0.1,0,0.1,0.1,0.3,0.1c0.1,0,0.2,0,0.3-0.1
		c0,0,0,0,0,0c-0.2,0.1-0.4-0.2-0.4-0.6C17.8,26.7,18.2,26.6,19.1,26.3z"/>
	<path class="st0" d="M14.7,25l0.4,0.2l0,0l0.4,0.1c-0.1,0.1-0.1,0.2,0,0.3c0,0,0,0,0,0c0-0.1,0.1-0.2,0.4-0.2c0,0,0,0,0,0
		c-0.1,0-0.3,0.2-0.2,0.5c0,0,0,0,0,0c0.1-0.1,0.3-0.2,0.3-0.2l-0.1,0.5c0.4,0.1,0.8-0.1,0.8-0.6l-0.4-0.1c0.5-0.3,1.1-0.6,1.7-0.6
		c0.9,0,1.5,1,1.5,1.6c0,0.1,0,0.4-0.1,0.5c-0.2,0.2-0.3,0.2-0.4,0.1c0,0,0,0,0,0c0.1,0.3,0.5,0.3,0.5,0.1c0,0,0,0,0,0
		c0.2,0.8,1.2-0.1,1.6,0.9c0,0-0.3,0.1-0.4,0.1c-0.3-0.2-0.4,0-0.5,0.1c0,0,0,0,0,0c0.3-0.1,0.4,0.1,0.4,0.2c-0.2-0.1-0.5,0-0.4,0.4
		c0,0,0,0,0,0c0.1-0.3,0.3-0.2,0.4-0.2c-0.1,0.1-0.3,0.3,0,0.5c0,0,0,0,0,0c0-0.2,0.1-0.3,0.2-0.3c0.1,0,0.3,0,0.4-0.2
		c0.1,0.2,0.4,0.1,0.5,0.1c0,0,0,0,0,0c-0.2-0.1-0.4-0.2-0.2-0.3c0,0,0.4,0.1,0.5-0.2c0,0,0,0,0,0c0,0-0.4,0.2-0.5-0.1
		c-0.1-0.2-0.1-0.6-0.3-0.7c0.2-0.1,0.3-0.3,0.1-0.5c0,0,0,0,0,0c0,0.5-1.1,0.1-1.1-0.6c0.8,0.2,1.5,0,1.5-0.8
		c0-0.7-0.7-1.1-0.7-1.4c0-0.2,0.2-0.3,0.3-0.3c0.3,0,0.6,0.4,0.7,0.6c0,0,0,0,0,0c0.1-0.2,0.1-0.4,0-0.5c0,0,0,0,0,0
		c0.1,0.1,0.6,0,0.6-0.4c0-0.1,0-0.2,0-0.3c0,0-0.1-0.1-0.1,0c0,0.1-0.1,0.3-0.4,0.3c-0.2,0-0.7-0.1-0.9-0.1c-0.5,0-0.7,0.4-0.7,0.7
		c0,0.6,0.7,0.7,0.7,1.3c0,0.4-0.6,0.6-1.1,0.2c-0.1-0.5-0.2-0.9-0.5-1.3c-1.2,0.4-1.4-0.4-2-0.4c-0.5,0-1.2,0.9-1.8,1.1l0.1-0.6
		l0.1,0l0-0.5c0,0-0.1,0.3-0.1,0.3c0,0,0,0,0,0c-0.1-0.1-0.2-0.4-0.2-0.4s0,0.4,0,0.4c0,0,0,0,0,0L15.5,24c0,0,0.1,0.3,0.1,0.5
		c0,0,0,0,0,0l-0.4-0.4c0,0,0.1,0.3,0.2,0.5c0,0,0,0,0,0c-0.1,0-0.4-0.3-0.4-0.3s0.2,0.2,0.3,0.4c0,0,0,0,0,0
		c-0.2-0.1-0.4-0.2-0.4-0.2s0.2,0.1,0.3,0.3c0,0,0,0,0,0C15,25,14.7,25,14.7,25z"/>
	<path class="st0" d="M0,47.5h37.6V0H0V47.5z M12.8,36.1c0,1.4-2.4,0.1-4.6-0.1c-1.9-0.1-2.4,0.4-2.4,0.4l0.3-1.9
		c0-0.1,0.4-0.4,1.7-0.4c1.6,0,2.3,0.3,2.6,0.4v1c0,0.2,0.1,0.3,0.3,0.4c0-0.1,0.3-0.7,2-0.7C12.8,35.2,12.8,36.1,12.8,36.1z
		 M10.7,28.5c-0.2-0.2-1.4-0.6-2-0.9c0,0,0,0,0,0c0.2,0,0.3-0.1,0.4-0.4c0-0.1,0-0.3-0.2-0.4c0.3-0.3,0.9-0.6,1.2-0.6
		c1.2,0,2.2,1.6,2.7,1.6c0.1,0,0.1,0,0.2-0.1c0,0,0,0,0,0c0,0.5-0.3,0.5-0.4,0.5c-0.1,0-0.2,0-0.2-0.1c0,0,0,0,0,0c0,0,0,0.1,0,0.1
		c0,0.6-0.6,1.2-0.6,1.2c0.3,0.3,1,0.8,1.1,0.5c0.1-0.1,0.4-0.7,0.9-0.2c0,0,0,0,0,0c-0.3,0-0.5,0.2-0.4,0.5
		c0.4-0.3,0.9-0.3,0.9,0.5c0,0,0,0,0,0c-0.3-0.4-0.7-0.1-0.7-0.1c0.3,0,0.7,0.4,0.3,0.9c0,0,0,0,0,0c0-0.4-0.3-0.4-0.5-0.4
		c-0.4,0-0.7,0.3-0.9,0c-0.1,0.5-0.6,0.4-0.8,0.4c0,0,0,0,0,0c0.2-0.1,0.3-0.3,0.3-0.4c0-0.3-0.6-0.7-0.8-0.7
		c-0.2,0-0.3,0.2-0.6,0.2c-0.2,0-0.4-0.1-0.5-0.3c0,0,0,0,0,0c0.1,0,0.5,0.1,0.6-0.5C11,29.3,11,28.8,10.7,28.5z M11,35.1
		C10.9,35.1,10.9,35.1,11,35.1l-0.1-2c0-0.6,3.8-0.9,7.9-0.9s7.9,0.3,7.9,0.9l0,1.9c0,0,0,0.1-0.1,0c-0.5-0.6-4.2-0.7-7.9-0.7
		C15.1,34.4,11.4,34.5,11,35.1z M23.7,29.9C23.7,29.9,23.6,29.9,23.7,29.9c0.5-0.6,0.8,0.1,0.9,0.2c0.2,0.3,0.9-0.2,1.1-0.5
		c0,0-0.6-0.6-0.6-1.2c0,0,0-0.1,0-0.1c0,0,0,0,0,0c-0.1,0-0.1,0.1-0.2,0.1c-0.1,0-0.4,0-0.4-0.5c0,0,0,0,0,0
		c0.1,0.1,0.2,0.1,0.2,0.1c0.5,0,1.5-1.6,2.7-1.6c0.3,0,0.9,0.2,1.2,0.6c-0.1,0.1-0.2,0.3-0.2,0.4c0,0.2,0.2,0.3,0.4,0.4
		c0,0,0,0,0,0c-0.6,0.2-1.7,0.6-2,0.9c-0.3,0.3-0.2,0.7-0.1,1.4c0.2,0.6,0.5,0.6,0.7,0.5c0,0,0,0,0,0c-0.2,0.2-0.3,0.3-0.5,0.3
		c-0.3,0-0.4-0.2-0.6-0.2c-0.3,0-0.8,0.4-0.8,0.7c0,0.2,0.1,0.3,0.3,0.4c0,0,0,0,0,0c-0.1,0-0.7,0.1-0.8-0.4c-0.3,0.4-0.6,0-0.9,0
		c-0.2,0-0.4,0.1-0.5,0.4c0,0,0,0,0,0c-0.4-0.6,0.1-0.9,0.3-0.9c-0.1-0.1-0.5-0.3-0.7,0.1c0,0,0,0,0,0c0-0.7,0.5-0.8,0.9-0.5
		C24.2,30.1,24,29.9,23.7,29.9z M29.4,36c-2.3,0.1-4.6,1.5-4.6,0.1v-0.8c1.8,0,2,0.6,2,0.7c0.2-0.1,0.3-0.2,0.3-0.4v-1
		c0.3-0.1,1.1-0.4,2.6-0.4c1.3,0,1.7,0.3,1.7,0.4l0.3,1.9C31.8,36.4,31.3,35.9,29.4,36z M27.9,17.7c0-0.2,0.3-0.6,1.2-0.4
		c0.4,0.1,0.7-0.1,0.6-0.3c0,0,0.1-0.1,0.1,0c0.1,0.1,0.2,0.4-0.1,0.6c-0.4,0.2-0.4,0.6-0.4,0.7c0,0.1,0.1,0.1,0.1,0
		c0.2-0.7,1.1-0.8,1.7-0.5c0,0.4-0.4,0.6-0.7,0.6c-0.1,0-0.3-0.1-0.3-0.3c0-0.1,0-0.1-0.1,0c-0.1,0.2,0.3,0.8,0.8,0.4
		c0.6,0.6,0.3,1.2,0.3,1.5c-0.1,0.5,0.1,0.9,0.5,0.7c0,0,0,0,0,0c0,0.3-0.4,0.6-0.8,0.4c-0.1,0.1-0.7,0.9,0.3,1.2c0,0,0.1,0.1,0,0.1
		c-0.7,0.3-1-0.2-1-0.2c-0.4,0.8,0.2,1.3,0.2,1.3c-0.1,0.1-0.4,0.4-0.9,0.5c-0.2-0.1-0.5-0.3-0.6-0.6c0,0-0.1,0.4,0,0.7
		c-1.4,0.1-1.9-1-3-0.8c0,0,0,0,0,0c0-0.7,0.4-2,1.8-2.3c1.4-0.3,1-0.8,1-0.8c-0.6,0-0.9,0.2-0.9,0.2c-0.1-0.2,0-0.4,0-0.4
		c-0.1-0.1-0.1-0.3-0.1-0.3c0.6,0,0.8-0.1,0.8-0.1c0.1-0.4-0.2-0.9-1.1-0.3C27,18.9,27,18.6,27,18.6c-0.1,0-0.1-0.1-0.1-0.2
		C26.9,18.2,27.7,17.8,27.9,17.7z M25.7,19.1C25.7,19,25.7,19,25.7,19.1c0.1,0.2,0.4,0.3,0.7,0.3c0.3,0,0.4-0.1,1-0.1
		c0,0,0.4,0,0.4,0.1c0,0.1-0.2,0-0.4,0.1c-0.5,0.1-0.7,0.4-1.1,0.4C25.9,19.8,25.5,19.5,25.7,19.1z M18.2,10.4
		c0.1,0,0.2,0.1,0.3,0.1c0.1,0.1,0.2,0.1,0.2,0c0,0,0.1-0.1,0-0.2c0-0.1-0.1-0.2-0.1-0.3c0-0.2,0.1-0.3,0.3-0.3s0.3,0.1,0.3,0.3
		c0,0.1-0.1,0.2-0.1,0.3c-0.1,0.1-0.1,0.2,0,0.2c0,0,0.1,0.1,0.2,0c0.1,0,0.2-0.1,0.3-0.1c0.2,0,0.3,0.1,0.3,0.3s-0.1,0.3-0.3,0.3
		c-0.1,0-0.2-0.1-0.3-0.1c-0.1-0.1-0.2-0.1-0.2,0s0,0.5,0.1,0.8c0.3,0.1,0.5,0.3,0.5,0.5c0,0.4-0.4,0.6-0.7,0.8
		c-0.3-0.1-0.7-0.4-0.7-0.8c0-0.2,0.2-0.4,0.5-0.5c0-0.3,0.1-0.7,0.1-0.8c0,0-0.1-0.1-0.2,0c-0.1,0-0.2,0.1-0.3,0.1
		c-0.2,0-0.3-0.1-0.3-0.3S18,10.4,18.2,10.4z M19.3,13.5c0,0.3-0.2,0.5-0.5,0.5s-0.5-0.2-0.5-0.5s0.2-0.5,0.5-0.5
		C19.1,13,19.3,13.3,19.3,13.5z M14.7,13.6c0.5,0,0.4,0.3,0.8,0.3c0,0,0.1,0,0.1,0c0,0.1-0.1,0.3-0.3,0.3c-0.2,0-0.2-0.2-0.4-0.2
		c-0.1,0-0.2,0.1-0.2,0.3c0,0.5,0.3,1,0.7,1.4c0.1-0.1,0.2-0.2,0.3-0.2c0.2,0,0.4,0.2,0.4,0.5c0,0.1,0,0.2-0.1,0.3
		c0.1,0.1,0.2,0.1,0.3,0.1c0.2,0,0.4-0.1,0.4-0.4c0-0.8-1.1-1.5-1.1-2.5c0-0.5,0.3-1,1-1c0.7,0,0.6,0.7,1.2,0.7c0,0,0.1,0,0.1,0
		c0,0-0.1,0.4-0.4,0.4c-0.3,0-0.4-0.6-0.8-0.6c-0.1,0-0.3,0.1-0.3,0.5c0,0.3,0.2,0.8,0.4,1.3c0.1-0.1,0.2-0.1,0.3-0.1
		c0.3,0,0.5,0.3,0.5,0.6c0,0.2-0.1,0.4-0.2,0.5c0.2,0.2,0.3,0.4,0.5,0.4c0.4,0,0.6-0.2,0.6-0.5c0-0.3-0.5-0.4-0.5-0.9
		c0-0.3,0.2-0.5,0.4-0.5c0.2,0,0.3,0.1,0.3,0.1c0,0,0.1-0.1,0.3-0.1c0.2,0,0.4,0.2,0.4,0.5c0,0.5-0.5,0.6-0.5,0.9
		c0,0.3,0.2,0.5,0.6,0.5c0.2,0,0.4-0.2,0.5-0.4C20,15.7,20,15.5,20,15.3c0-0.3,0.2-0.6,0.5-0.6c0.1,0,0.2,0.1,0.3,0.1
		c0.2-0.5,0.4-1,0.4-1.3c0-0.4-0.2-0.5-0.3-0.5c-0.3,0-0.4,0.6-0.8,0.6c-0.3,0-0.4-0.4-0.4-0.4c0,0,0,0,0.1,0c0.6,0,0.5-0.7,1.2-0.7
		c0.7,0,1,0.5,1,1c0,1-1.1,1.7-1.1,2.5c0,0.4,0.2,0.4,0.4,0.4c0.1,0,0.2,0,0.3-0.1c0-0.1-0.1-0.2-0.1-0.3c0-0.3,0.2-0.5,0.4-0.5
		c0.1,0,0.2,0.1,0.3,0.2c0.4-0.4,0.7-0.9,0.7-1.4c0-0.2-0.1-0.3-0.2-0.3c-0.2,0-0.2,0.2-0.4,0.2c-0.2,0-0.3-0.2-0.3-0.3
		c0,0,0,0,0.1,0c0.4,0,0.3-0.3,0.8-0.3c0.2,0,0.7,0.1,0.7,0.8c0,1.1-1.4,1.4-1.1,2.3c-0.6-0.1-0.6,0.5-0.6,1.5c0,0-1.1-0.4-3.1-0.4
		s-3.1,0.4-3.1,0.4c0-1,0-1.6-0.6-1.5c0.3-0.9-1-1.2-1-2.3C14,13.7,14.5,13.6,14.7,13.6z M11.9,19.1C11.9,19,11.9,19,11.9,19.1
		c0.2,0.5-0.1,0.7-0.5,0.7c-0.4,0-0.6-0.3-1.1-0.4c-0.2,0-0.4,0-0.4-0.1c0-0.1,0.3-0.1,0.4-0.1c0.5,0,0.6,0.1,1,0.1
		C11.5,19.4,11.8,19.3,11.9,19.1z M5.9,20.7c0.4,0.2,0.6-0.2,0.5-0.7c-0.1-0.3-0.3-0.9,0.3-1.5c0.5,0.3,0.9-0.2,0.8-0.4
		c0-0.1-0.1-0.1-0.1,0c0,0.2-0.2,0.3-0.3,0.3c-0.2,0-0.6-0.2-0.7-0.6c0.6-0.4,1.5-0.2,1.7,0.5c0,0.1,0.1,0.1,0.1,0
		c0-0.1,0-0.5-0.4-0.7c-0.4-0.2-0.2-0.5-0.1-0.6c0,0,0.1,0,0.1,0c-0.1,0.2,0.2,0.4,0.6,0.3c0.9-0.1,1.2,0.2,1.2,0.4
		c0.2,0.1,1,0.5,1,0.6c0,0,0,0.2-0.1,0.2c0,0,0,0.3-0.2,0.5c-1-0.6-1.2,0-1.1,0.3c0,0,0.2,0.1,0.8,0.1c0,0,0,0.2-0.1,0.3
		c0,0,0.1,0.2,0,0.4c0,0-0.3-0.2-0.9-0.2c0,0-0.4,0.6,1,0.8c1.4,0.3,1.8,1.5,1.8,2.3c0,0,0,0.1,0,0c-1.1-0.2-1.6,0.9-3,0.8
		c0.1-0.3,0-0.7,0-0.7c-0.1,0.3-0.4,0.5-0.6,0.6c-0.5-0.1-0.8-0.4-0.9-0.5c0,0,0.5-0.4,0.2-1.3c0,0-0.3,0.5-1,0.2
		c-0.1,0,0-0.1,0-0.1c0.9-0.3,0.3-1.1,0.3-1.2C6.3,21.3,5.9,21,5.9,20.7C5.9,20.7,5.9,20.7,5.9,20.7z M2.6,21.7
		C2.6,21.6,2.6,21.6,2.6,21.7c0.1,0.1,0.3,0.5,0.8,0.5c0,0,1.1,0,1.3,0c1.4,0,1.5,1.1,1.5,1.4c0,1.2-1.5,1.7-1.5,2.8
		c0,0.3,0.1,0.7,0.9,0.7c0.3,0,0.6-0.1,0.8-0.2c0,0,0.3-2.1,1.3-2.8c0,0,1.2,0.6,2.3-0.1c0.9-0.5,1.3-0.8,2.1-0.3s1.5,1.1,1.5,1.1
		l0.2,0v-4.6c-0.4,0-0.4,0.3-0.4,0.4c0,0.1,0.1,0.2-0.1,0.6c0,0,0,0-0.1,0c0-0.1-0.1-0.3-0.2-0.3c-0.1,0-0.7,0.4-1.1,0.9
		c0,0-0.3-0.8-0.9-1.1c0.4-0.1,2-0.4,2-1.1c0-0.2,0.3-0.3,0.4-0.3c0,0,0.3-0.6,0.8-0.3c0,0,0,0.1,0,0.1c-0.2,0-0.3,0.3-0.3,0.5
		c0.2-0.1,0.6-0.2,1.1-0.3v1.5h0.7v-1.6c0.8-0.2,1.9-0.3,3-0.3c2.3,0,4.3,0.6,4.8,0.7c0-0.2-0.1-0.5-0.3-0.5c0,0,0,0,0-0.1
		c0.5-0.3,0.7,0.3,0.8,0.3c0.2,0,0.4,0,0.4,0.3c0,0.7,1.6,1.1,2,1.1c-0.7,0.3-0.9,1.1-0.9,1.1c-0.5-0.5-1-0.9-1.1-0.9
		c-0.1,0-0.2,0.2-0.2,0.3c0,0,0,0-0.1,0c-0.2-0.4-0.1-0.5-0.1-0.6c0-0.1,0-0.4-0.4-0.4V25l0.2,0c0.1,0,0.8-0.6,1.5-1.1
		c0.8-0.5,1.2-0.2,2.1,0.3c1.2,0.6,2.3,0.1,2.3,0.1c1,0.7,1.3,2.8,1.3,2.8c0.2,0.1,0.5,0.2,0.8,0.2c0.8,0,0.9-0.5,0.9-0.7
		c0-1.2-1.5-1.7-1.5-2.8c0-0.3,0.1-1.4,1.5-1.4c0.2,0,1.3,0,1.3,0c0.5,0,0.7-0.4,0.7-0.5c0-0.1,0.1,0,0.1,0c0,0.1,0.1,0.2,0.1,0.5
		c0,0.5-0.3,0.8-0.8,0.8c-0.2,0-0.5-0.1-0.5-0.1c0,0-0.1,0-0.1,0c0.2,0.3,0.2,0.8,0.2,0.9c0,0,0,0-0.1,0c-0.1-0.5-0.6-1-1.2-1
		c-0.8,0-0.8,0.7-0.8,0.8c0,0.9,1.7,1.6,1.7,2.9c0,1.3-1.4,1.6-2.2,1.4c0,1.3,1.6,1.8,1.6,0.8c0,0,0-0.1,0.1,0
		c0.2,0.5,0.1,0.9-0.5,1c0,0,0,0,0,0.1c0.6,0.4,0.3,1.8,0.2,2.3c0,0.6,0.6,0.5,0.6,0.5c0,0,0,0,0,0.1c-0.4,0.5-1,0-1,0
		c-0.4,0.1-0.2,0.5,0.1,0.7c0,0,0,0.1,0,0.1c-0.1,0-0.7,0.1-0.8-0.4c-0.3,0.3-0.7,0.2-0.8,0.2c-0.1-0.1-0.7-0.3-0.8,0.4
		c0,0,0,0-0.1,0c-0.4-0.6,0-0.9,0.3-0.9c0,0-0.4-0.3-0.7,0.1c0,0,0,0,0,0c0-0.7,0.5-0.8,0.9-0.5c0-0.1,0.1-0.5-0.4-0.5c0,0,0,0,0,0
		c0.4-0.5,0.8,0,0.9,0.1c0.2,0.2,0.7,0.1,0.7,0.1c-0.2-2.5-2.3-1.6-2.6-2.8c0-0.1,0,0,0,0c-0.1,0.3-0.8,0.3-1-0.2c0,0,0-0.1,0,0
		c0.6,0.6,2-1.3,0.1-2.9c-1.7-1.4-3.1-0.6-3.7-0.2c0,0.2,0.1,0.3,0.2,0.3c0,0,0,0,0,0.1c-0.2,0.1-0.4,0-0.5-0.1
		c-0.4,0.2-0.1,0.6,0.1,0.6c0,0,0,0,0,0.1c-0.3,0.1-0.6-0.3-0.6-0.5l-0.1,0v1.4c0,2-2.3,2.3-4.8,4c-2.5-1.7-4.8-2-4.8-4v-1.4l-0.1,0
		c0,0.2-0.3,0.5-0.6,0.5c0,0,0,0,0-0.1c0.1-0.1,0.4-0.4,0.1-0.6c-0.1,0.1-0.3,0.2-0.5,0.1c0,0,0,0,0-0.1c0.1,0,0.2-0.1,0.2-0.3
		c-0.6-0.4-2-1.2-3.7,0.2c-1.9,1.6-0.5,3.6,0.1,2.9c0,0,0,0,0,0c-0.1,0.6-0.9,0.5-1,0.2c0,0,0,0,0,0c-0.3,1.2-2.5,0.3-2.6,2.8
		c0,0,0.5,0.1,0.7-0.1c0.1-0.1,0.4-0.5,0.9-0.1c0,0,0,0,0,0c-0.6,0-0.4,0.4-0.4,0.5c0.4-0.3,1-0.2,0.9,0.5c0,0.1,0,0.1,0,0
		c-0.3-0.4-0.7-0.1-0.7-0.1c0.3,0,0.7,0.4,0.3,0.9c0,0,0,0.1,0,0c-0.1-0.7-0.6-0.4-0.8-0.4c-0.1,0-0.5,0.2-0.8-0.2
		c-0.1,0.5-0.7,0.4-0.8,0.4c0,0,0,0,0-0.1c0.3-0.2,0.5-0.5,0.1-0.7c0,0-0.5,0.5-1,0c0,0,0-0.1,0-0.1c0,0,0.7,0.1,0.6-0.5
		c0-0.4-0.3-1.9,0.2-2.3c0,0,0.1,0,0-0.1c-0.6-0.1-0.7-0.5-0.5-1c0-0.1,0.1,0,0.1,0c0,0.9,1.6,0.5,1.6-0.8c-0.8,0.2-2.2-0.1-2.2-1.4
		c0-1.3,1.7-2,1.7-2.9c0-0.2,0-0.8-0.8-0.8c-0.6,0-1.1,0.5-1.2,1c0,0,0,0-0.1,0c-0.1-0.1-0.1-0.6,0.1-0.9c0,0,0-0.1-0.1,0
		c-0.1,0-0.3,0.1-0.5,0.1c-0.5,0-0.8-0.3-0.8-0.8C2.5,21.9,2.6,21.8,2.6,21.7z"/>
	<rect x="18.8" y="28.6" class="st0" width="0.7" height="1.8"/>
	<path class="st1" d="M45.7,20.8c0.2-0.1,0.4-0.2,0.5-0.3s0.2-0.3,0.2-0.4L47,14l-0.7-0.2v-0.3c0.1,0,0.3,0,0.4,0s0.3,0,0.4,0
		s0.3,0,0.4,0s0.3,0,0.4,0h0.4l1.9,5.8h0l1.8-5.8h0.5c0.2,0,0.5,0,0.7,0s0.5,0,0.7,0.1v0.3L53.3,14l0.5,6.6l0.7,0.1V21
		c-0.1,0.1-0.3,0.1-0.5,0.1s-0.4,0-0.7,0c-0.1,0-0.3,0-0.4,0s-0.2,0-0.3,0s-0.2,0-0.3,0s-0.2,0-0.3-0.1v-0.2
		c0.5-0.1,0.7-0.4,0.7-0.9l-0.3-5.4h0l-2.1,6.7l-0.5,0.1l-2.2-6.7l0,0l-0.4,6l0.8,0.2V21c-0.1,0-0.2,0.1-0.4,0.1s-0.2,0-0.3,0.1
		s-0.2,0-0.3,0s-0.2,0-0.4,0c-0.1,0-0.3,0-0.5,0s-0.3,0-0.5-0.1V20.8z"/>
	<path class="st1" d="M55.3,20.8c0.1,0,0.2-0.1,0.2-0.1s0.1-0.1,0.2-0.1s0.1-0.1,0.1-0.2s0.1-0.1,0.1-0.2v-4.1l-0.8-0.3v-0.3
		c0.3-0.1,0.5-0.1,0.8-0.2s0.5-0.1,0.6-0.1H57L57,16v4.6l0.7,0.2V21c-0.1,0-0.2,0.1-0.3,0.1s-0.2,0-0.3,0.1s-0.2,0-0.4,0
		s-0.3,0-0.4,0c-0.1,0-0.3,0-0.5,0s-0.3,0-0.5-0.1V20.8z M56.5,14.2c-0.1,0-0.2,0-0.3,0S56.1,14.1,56,14s-0.1-0.1-0.1-0.2
		s0-0.2,0-0.3c0-0.1,0-0.2,0-0.3s0.1-0.2,0.1-0.2s0.1-0.1,0.2-0.2s0.2-0.1,0.3-0.1c0.1,0,0.2,0,0.2,0S56.9,13,57,13s0.1,0.1,0.1,0.2
		s0,0.2,0,0.3c0,0.1,0,0.2-0.1,0.3S57,13.9,57,14s-0.1,0.1-0.2,0.2S56.6,14.2,56.5,14.2z"/>
	<path class="st1" d="M58.5,20.8c0.1,0,0.2-0.1,0.2-0.1s0.1-0.1,0.2-0.1s0.1-0.1,0.1-0.2s0.1-0.1,0.1-0.2v-4.1l-0.8-0.3v-0.3
		c0.3-0.1,0.5-0.1,0.8-0.2s0.5,0,0.6,0h0.3V16c0.2-0.2,0.5-0.4,0.8-0.5s0.6-0.2,1-0.2c0.2,0,0.5,0,0.7,0.1s0.4,0.2,0.5,0.4
		s0.3,0.4,0.3,0.6s0.1,0.5,0.1,0.8v3.4l0.6,0.2V21c-0.3,0.1-0.8,0.2-1.3,0.2c-0.1,0-0.3,0-0.4,0s-0.3,0-0.4-0.1v-0.2
		c0.1-0.1,0.3-0.2,0.3-0.3s0.1-0.3,0.1-0.5v-2.3c0-0.3,0-0.5-0.1-0.8s-0.1-0.4-0.2-0.5s-0.2-0.2-0.4-0.3s-0.3-0.1-0.5-0.1
		c-0.2,0-0.5,0-0.7,0.1s-0.4,0.2-0.5,0.3v4l0.7,0.2V21c-0.1,0-0.2,0.1-0.3,0.1s-0.2,0-0.3,0.1s-0.2,0-0.4,0s-0.3,0-0.4,0
		c-0.1,0-0.3,0-0.5,0s-0.3,0-0.4-0.1V20.8z"/>
	<path class="st1" d="M65.1,20.8c0.1,0,0.2-0.1,0.2-0.1s0.1-0.1,0.2-0.1s0.1-0.1,0.1-0.2s0.1-0.1,0.1-0.2v-4.1l-0.8-0.3v-0.3
		c0.3-0.1,0.5-0.1,0.8-0.2s0.5-0.1,0.6-0.1h0.4L66.7,16v4.6l0.7,0.2V21c-0.1,0-0.2,0.1-0.3,0.1s-0.2,0-0.3,0.1s-0.2,0-0.4,0
		s-0.3,0-0.4,0c-0.1,0-0.3,0-0.5,0s-0.3,0-0.5-0.1V20.8z M66.2,14.2c-0.1,0-0.2,0-0.3,0s-0.1-0.1-0.2-0.1s-0.1-0.1-0.1-0.2
		s0-0.2,0-0.3c0-0.1,0-0.2,0-0.3s0.1-0.2,0.1-0.2s0.1-0.1,0.2-0.2s0.2-0.1,0.3-0.1c0.1,0,0.2,0,0.2,0s0.1,0.1,0.2,0.1
		s0.1,0.1,0.1,0.2s0,0.2,0,0.3c0,0.1,0,0.2-0.1,0.3s-0.1,0.2-0.1,0.2s-0.1,0.1-0.2,0.2S66.3,14.2,66.2,14.2z"/>
	<path class="st1" d="M68.1,20.2c0-0.1,0-0.2,0-0.3s0-0.2,0.1-0.2c0.3,0.3,0.5,0.4,0.8,0.6s0.6,0.2,0.9,0.2c0.3,0,0.6-0.1,0.8-0.2
		s0.3-0.3,0.3-0.5c0-0.1,0-0.2,0-0.3s-0.1-0.2-0.2-0.3s-0.2-0.2-0.3-0.2s-0.3-0.2-0.5-0.2l-0.6-0.3c-0.3-0.1-0.6-0.3-0.8-0.6
		s-0.3-0.5-0.3-0.9c0-0.2,0-0.5,0.1-0.7s0.2-0.4,0.4-0.6s0.4-0.3,0.7-0.4s0.5-0.1,0.9-0.1c0.2,0,0.4,0,0.6,0.1s0.3,0.1,0.4,0.1
		s0.2,0.1,0.2,0.2s0.1,0.2,0.1,0.3c0,0.1,0,0.2,0,0.3s0,0.2,0,0.2c-0.2-0.1-0.4-0.2-0.7-0.3S70.4,16,70.2,16c-0.2,0-0.4,0-0.5,0.1
		s-0.3,0.1-0.4,0.2s-0.2,0.1-0.2,0.2s-0.1,0.2-0.1,0.3c0,0.1,0,0.2,0,0.3s0.1,0.2,0.2,0.2s0.2,0.1,0.3,0.2s0.3,0.1,0.5,0.2l0.7,0.3
		c0.2,0.1,0.4,0.2,0.5,0.3s0.3,0.2,0.4,0.3s0.2,0.3,0.2,0.4s0.1,0.3,0.1,0.5c0,0.2-0.1,0.5-0.2,0.7s-0.3,0.4-0.5,0.6
		s-0.4,0.3-0.7,0.4s-0.6,0.1-0.9,0.1c-0.5,0-0.9-0.1-1.2-0.2S68.1,20.6,68.1,20.2z"/>
	<path class="st1" d="M73.1,19.5c0-0.3,0-0.6,0-0.9s0-0.6,0-0.9l0-1.6h-0.7v-0.4l1.3-1.3l0.4,0l-0.1,1.1h1.6l-0.1,0.7h-1.5l0,1.5
		c0,0.3,0,0.5,0,0.7s0,0.5,0,0.7c0,0.2,0,0.4,0.1,0.6s0.1,0.3,0.1,0.4s0.1,0.2,0.2,0.2s0.2,0.1,0.3,0.1c0.2,0,0.3,0,0.5-0.1
		s0.3-0.1,0.4-0.2l0.1,0c0,0.7-0.5,1.1-1.3,1.1c-0.5,0-0.8-0.1-1.1-0.4S73.1,20.1,73.1,19.5z"/>
	<path class="st1" d="M76.2,18.5c0-0.5,0.1-1,0.2-1.4s0.3-0.7,0.6-1c0.2-0.3,0.5-0.5,0.8-0.6s0.6-0.2,0.9-0.2c0.3,0,0.6,0.1,0.9,0.2
		s0.5,0.3,0.7,0.4c0.2,0.2,0.3,0.4,0.4,0.7s0.1,0.6,0.1,0.9c0,0.1,0,0.2,0,0.4s0,0.3,0,0.4h-3.5c0,0.3,0,0.6,0.1,0.9
		s0.2,0.5,0.4,0.7s0.3,0.3,0.6,0.4s0.4,0.1,0.7,0.1c0.1,0,0.3,0,0.4,0s0.3-0.1,0.4-0.1s0.3-0.1,0.4-0.2s0.3-0.1,0.4-0.2
		c0,0,0,0.1,0,0.1s0,0.1,0,0.2c0,0.1,0,0.3-0.1,0.4s-0.2,0.2-0.4,0.3s-0.4,0.2-0.7,0.2s-0.5,0.1-0.9,0.1c-0.3,0-0.7-0.1-1-0.2
		s-0.6-0.3-0.8-0.6s-0.4-0.5-0.5-0.9S76.2,18.9,76.2,18.5z M79.8,17.6c0-0.3,0-0.5-0.1-0.8s-0.1-0.4-0.3-0.5
		c-0.1-0.1-0.2-0.2-0.4-0.3c-0.1-0.1-0.3-0.1-0.5-0.1c-0.2,0-0.3,0-0.5,0.1c-0.2,0.1-0.3,0.2-0.4,0.4c-0.1,0.2-0.2,0.3-0.3,0.6
		c-0.1,0.2-0.1,0.4-0.1,0.7H79.8z"/>
	<path class="st1" d="M81.7,20.8c0.1,0,0.2-0.1,0.2-0.1s0.1-0.1,0.2-0.1s0.1-0.1,0.1-0.2s0.1-0.1,0.1-0.2v-4.1l-0.8-0.3v-0.3
		c0.3-0.1,0.5-0.1,0.8-0.2s0.5,0,0.6,0h0.3v0.8h0l0.3-0.4c0.2-0.2,0.3-0.3,0.5-0.4s0.4-0.1,0.6-0.1c0.4,0,0.6,0.2,0.6,0.5
		c0,0.1,0,0.2-0.1,0.4s-0.1,0.2-0.1,0.4c-0.1-0.1-0.2-0.2-0.4-0.2s-0.3-0.1-0.4-0.1c-0.4,0-0.7,0.2-1.1,0.5v3.8l0.8,0.2V21
		C84,21,83.9,21,83.8,21s-0.2,0-0.3,0.1s-0.2,0-0.4,0s-0.3,0-0.5,0c-0.2,0-0.3,0-0.5,0s-0.3,0-0.5-0.1V20.8z"/>
	<path class="st1" d="M85.7,20.8c0.1,0,0.2-0.1,0.2-0.1s0.1-0.1,0.2-0.1s0.1-0.1,0.1-0.2s0.1-0.1,0.1-0.2v-4.1l-0.8-0.3v-0.3
		c0.3-0.1,0.5-0.1,0.8-0.2s0.5-0.1,0.6-0.1h0.4L87.3,16v4.6l0.7,0.2V21c-0.1,0-0.2,0.1-0.3,0.1s-0.2,0-0.3,0.1s-0.2,0-0.4,0
		s-0.3,0-0.4,0c-0.1,0-0.3,0-0.5,0s-0.3,0-0.5-0.1V20.8z M86.8,14.2c-0.1,0-0.2,0-0.3,0s-0.1-0.1-0.2-0.1s-0.1-0.1-0.1-0.2
		s0-0.2,0-0.3c0-0.1,0-0.2,0-0.3s0.1-0.2,0.1-0.2s0.1-0.1,0.2-0.2s0.2-0.1,0.3-0.1c0.1,0,0.2,0,0.2,0s0.1,0.1,0.2,0.1
		s0.1,0.1,0.1,0.2s0,0.2,0,0.3c0,0.1,0,0.2-0.1,0.3s-0.1,0.2-0.1,0.2s-0.1,0.1-0.2,0.2S86.9,14.2,86.8,14.2z"/>
	<path class="st1" d="M88.8,18.5c0-0.5,0.1-1,0.2-1.4s0.3-0.7,0.6-1c0.2-0.3,0.5-0.5,0.8-0.6s0.6-0.2,0.9-0.2c0.3,0,0.6,0.1,0.9,0.2
		s0.5,0.3,0.7,0.4c0.2,0.2,0.3,0.4,0.4,0.7s0.1,0.6,0.1,0.9c0,0.1,0,0.2,0,0.4s0,0.3,0,0.4h-3.5c0,0.3,0,0.6,0.1,0.9
		s0.2,0.5,0.4,0.7s0.3,0.3,0.6,0.4s0.4,0.1,0.7,0.1c0.1,0,0.3,0,0.4,0s0.3-0.1,0.4-0.1s0.3-0.1,0.4-0.2s0.3-0.1,0.4-0.2
		c0,0,0,0.1,0,0.1s0,0.1,0,0.2c0,0.1,0,0.3-0.1,0.4s-0.2,0.2-0.4,0.3s-0.4,0.2-0.7,0.2s-0.5,0.1-0.9,0.1c-0.3,0-0.7-0.1-1-0.2
		s-0.6-0.3-0.8-0.6S89.1,20,89,19.6S88.8,18.9,88.8,18.5z M92.4,17.6c0-0.3,0-0.5-0.1-0.8s-0.1-0.4-0.3-0.5
		c-0.1-0.1-0.2-0.2-0.4-0.3c-0.1-0.1-0.3-0.1-0.5-0.1c-0.2,0-0.3,0-0.5,0.1c-0.2,0.1-0.3,0.2-0.4,0.4c-0.1,0.2-0.2,0.3-0.3,0.6
		c-0.1,0.2-0.1,0.4-0.1,0.7H92.4z"/>
	<path class="st1" d="M96.2,16l-0.5-0.4v-0.3H98v0.3l-0.7,0.3l1.3,3.8h0l1.3-3.8l-0.7-0.3v-0.3h1.9v0.3l-0.3,0.3l-2.1,5.3l-0.4,0
		L96.2,16z"/>
	<path class="st1" d="M101.3,19.9c0-0.3,0.1-0.5,0.2-0.7s0.3-0.4,0.6-0.6s0.6-0.3,1-0.4s0.8-0.2,1.3-0.2v-0.3c0-0.3,0-0.6-0.1-0.8
		s-0.1-0.4-0.2-0.5s-0.2-0.2-0.3-0.2s-0.3-0.1-0.5-0.1c-0.3,0-0.7,0.1-1,0.2s-0.6,0.3-0.8,0.6c0-0.1,0-0.2,0-0.4
		c0-0.2,0-0.4,0.1-0.5c0.1-0.2,0.2-0.3,0.3-0.4s0.4-0.2,0.6-0.2s0.5-0.1,0.9-0.1c0.3,0,0.6,0,0.8,0.1s0.4,0.2,0.6,0.3
		s0.3,0.3,0.4,0.5c0.1,0.2,0.1,0.4,0.1,0.7c0,0.1,0,0.2,0,0.3s0,0.2,0,0.3s0,0.2,0,0.3s0,0.2,0,0.3l0,1.9c0,0.1,0.1,0.2,0.2,0.3
		s0.2,0.2,0.3,0.3c-0.1,0.1-0.2,0.2-0.4,0.3s-0.3,0.2-0.5,0.3c-0.1-0.1-0.2-0.2-0.3-0.3s-0.2-0.2-0.2-0.3c-0.1,0.1-0.2,0.2-0.3,0.2
		s-0.3,0.1-0.4,0.2s-0.3,0.1-0.4,0.1s-0.3,0-0.5,0c-0.2,0-0.4,0-0.6-0.1s-0.3-0.2-0.5-0.3s-0.2-0.3-0.3-0.4S101.3,20.1,101.3,19.9z
		 M102.3,19.7c0,0.2,0.1,0.4,0.2,0.6s0.4,0.2,0.7,0.2c0.1,0,0.2,0,0.3,0s0.2,0,0.3-0.1s0.2-0.1,0.3-0.1s0.2-0.1,0.3-0.1v-1.7
		c-0.3,0-0.6,0-0.9,0.1s-0.5,0.2-0.7,0.3s-0.3,0.2-0.4,0.4S102.3,19.6,102.3,19.7z"/>
	<path class="st1" d="M106.8,20.8c0.1,0,0.2-0.1,0.2-0.1s0.1-0.1,0.2-0.1s0.1-0.1,0.1-0.2s0.1-0.1,0.1-0.2v-4.1l-0.8-0.3v-0.3
		c0.3-0.1,0.5-0.1,0.8-0.2s0.5,0,0.6,0h0.3V16c0.2-0.2,0.5-0.4,0.8-0.5s0.6-0.2,1-0.2c0.2,0,0.5,0,0.7,0.1s0.4,0.2,0.5,0.4
		s0.3,0.4,0.3,0.6s0.1,0.5,0.1,0.8v3.4l0.6,0.2V21c-0.3,0.1-0.8,0.2-1.3,0.2c-0.1,0-0.3,0-0.4,0s-0.3,0-0.4-0.1v-0.2
		c0.1-0.1,0.3-0.2,0.3-0.3s0.1-0.3,0.1-0.5v-2.3c0-0.3,0-0.5-0.1-0.8s-0.1-0.4-0.2-0.5s-0.2-0.2-0.4-0.3s-0.3-0.1-0.5-0.1
		c-0.2,0-0.5,0-0.7,0.1s-0.4,0.2-0.5,0.3v4l0.7,0.2V21c-0.1,0-0.2,0.1-0.3,0.1s-0.2,0-0.3,0.1s-0.2,0-0.4,0s-0.3,0-0.4,0
		c-0.1,0-0.3,0-0.5,0s-0.3,0-0.4-0.1V20.8z"/>
	<path class="st1" d="M115.6,20.8c0.1,0,0.2-0.1,0.3-0.1s0.2-0.1,0.2-0.2s0.1-0.2,0.1-0.2s0-0.2,0-0.3V14l-0.8-0.3v-0.3h4.5
		l-0.1,1.8h-0.4l0-0.2c0-0.2-0.1-0.3-0.1-0.4s-0.1-0.2-0.2-0.3s-0.2-0.1-0.3-0.1s-0.3,0-0.5,0h-1.2v2.8h1.2c0.2,0,0.4,0,0.6-0.1
		s0.2-0.2,0.3-0.3l0.1-0.3h0.3v2.3h-0.3l-0.1-0.3c-0.1-0.4-0.3-0.6-0.6-0.6h-1.5v2.8h1.4c0.2,0,0.3,0,0.4,0s0.2-0.1,0.3-0.1
		s0.2-0.1,0.2-0.2s0.1-0.2,0.2-0.3l0.1-0.2h0.3l-0.3,1.6h-4.5V20.8z"/>
	<path class="st1" d="M121.2,18.5c0-0.5,0.1-0.9,0.2-1.3s0.3-0.7,0.6-1c0.3-0.3,0.6-0.5,0.9-0.6s0.7-0.2,1.1-0.2
		c0.2,0,0.4,0,0.6,0.1s0.3,0.1,0.4,0.1s0.2,0.1,0.2,0.2s0.1,0.2,0.1,0.3c0,0.1,0,0.2,0,0.3s-0.1,0.2-0.1,0.3
		c-0.2-0.2-0.5-0.3-0.7-0.4S124,16,123.7,16c-0.2,0-0.4,0-0.6,0.1s-0.3,0.2-0.5,0.4s-0.3,0.4-0.3,0.7s-0.1,0.6-0.1,0.9
		c0,0.4,0,0.7,0.1,0.9s0.2,0.5,0.4,0.7s0.3,0.3,0.5,0.4s0.4,0.1,0.7,0.1c0.1,0,0.2,0,0.4,0s0.2-0.1,0.4-0.1s0.2-0.1,0.3-0.2
		s0.2-0.1,0.3-0.2c0,0.1,0.1,0.2,0.1,0.3c0,0.1,0,0.3-0.1,0.4s-0.2,0.2-0.3,0.3s-0.3,0.2-0.5,0.2s-0.5,0.1-0.8,0.1
		c-0.3,0-0.6-0.1-0.9-0.2s-0.5-0.3-0.8-0.6s-0.4-0.5-0.5-0.9S121.2,18.9,121.2,18.5z"/>
	<path class="st1" d="M125.9,18.5c0-0.5,0.1-0.9,0.2-1.3s0.4-0.7,0.6-1c0.3-0.3,0.6-0.5,0.9-0.6s0.7-0.2,1.1-0.2
		c0.4,0,0.7,0.1,1,0.2s0.6,0.3,0.8,0.6c0.2,0.2,0.4,0.5,0.6,0.9s0.2,0.7,0.2,1.1c0,0.5-0.1,0.9-0.2,1.3s-0.4,0.7-0.6,1
		s-0.6,0.5-0.9,0.6s-0.7,0.2-1,0.2c-0.4,0-0.7-0.1-1-0.2s-0.6-0.3-0.8-0.5s-0.4-0.5-0.6-0.9S125.9,18.9,125.9,18.5z M127,18.3
		c0,0.4,0,0.7,0.1,1s0.2,0.5,0.4,0.7s0.3,0.3,0.5,0.4s0.4,0.1,0.6,0.1c0.2,0,0.4,0,0.6-0.1s0.4-0.2,0.5-0.4s0.3-0.5,0.4-0.8
		s0.1-0.7,0.1-1.1c0-0.4,0-0.7-0.1-0.9s-0.2-0.5-0.4-0.7s-0.3-0.3-0.5-0.4c-0.2-0.1-0.4-0.1-0.6-0.1c-0.2,0-0.4,0.1-0.6,0.2
		c-0.2,0.1-0.4,0.3-0.5,0.5s-0.3,0.5-0.4,0.8S127,18,127,18.3z"/>
	<path class="st1" d="M132.4,20.8c0.1,0,0.2-0.1,0.2-0.1s0.1-0.1,0.2-0.1s0.1-0.1,0.1-0.2s0.1-0.1,0.1-0.2v-4.1l-0.8-0.3v-0.3
		c0.3-0.1,0.5-0.1,0.8-0.2s0.5,0,0.6,0h0.3V16c0.2-0.2,0.5-0.4,0.8-0.5s0.6-0.2,1-0.2c0.2,0,0.5,0,0.7,0.1s0.4,0.2,0.5,0.4
		s0.3,0.4,0.3,0.6s0.1,0.5,0.1,0.8v3.4l0.6,0.2V21c-0.3,0.1-0.8,0.2-1.3,0.2c-0.1,0-0.3,0-0.4,0s-0.3,0-0.4-0.1v-0.2
		c0.1-0.1,0.3-0.2,0.3-0.3s0.1-0.3,0.1-0.5v-2.3c0-0.3,0-0.5-0.1-0.8s-0.1-0.4-0.2-0.5s-0.2-0.2-0.4-0.3s-0.3-0.1-0.5-0.1
		c-0.2,0-0.5,0-0.7,0.1s-0.4,0.2-0.5,0.3v4l0.7,0.2V21c-0.1,0-0.2,0.1-0.3,0.1s-0.2,0-0.3,0.1s-0.2,0-0.4,0s-0.3,0-0.4,0
		c-0.1,0-0.3,0-0.5,0s-0.3,0-0.4-0.1V20.8z"/>
	<path class="st1" d="M138.8,18.5c0-0.5,0.1-0.9,0.2-1.3s0.4-0.7,0.6-1c0.3-0.3,0.6-0.5,0.9-0.6s0.7-0.2,1.1-0.2
		c0.4,0,0.7,0.1,1,0.2s0.6,0.3,0.8,0.6c0.2,0.2,0.4,0.5,0.6,0.9s0.2,0.7,0.2,1.1c0,0.5-0.1,0.9-0.2,1.3s-0.4,0.7-0.6,1
		s-0.6,0.5-0.9,0.6s-0.7,0.2-1,0.2c-0.4,0-0.7-0.1-1-0.2s-0.6-0.3-0.8-0.5s-0.4-0.5-0.6-0.9S138.8,18.9,138.8,18.5z M139.9,18.3
		c0,0.4,0,0.7,0.1,1s0.2,0.5,0.4,0.7s0.3,0.3,0.5,0.4s0.4,0.1,0.6,0.1c0.2,0,0.4,0,0.6-0.1s0.4-0.2,0.5-0.4s0.3-0.5,0.4-0.8
		s0.1-0.7,0.1-1.1c0-0.4,0-0.7-0.1-0.9s-0.2-0.5-0.4-0.7s-0.3-0.3-0.5-0.4c-0.2-0.1-0.4-0.1-0.6-0.1c-0.2,0-0.4,0.1-0.6,0.2
		c-0.2,0.1-0.4,0.3-0.5,0.5s-0.3,0.5-0.4,0.8S139.9,18,139.9,18.3z"/>
	<path class="st1" d="M145.2,20.8c0.1,0,0.2-0.1,0.2-0.1s0.1-0.1,0.2-0.1s0.1-0.1,0.1-0.2s0.1-0.1,0.1-0.2v-4.1l-0.8-0.3v-0.3
		c0.3-0.1,0.5-0.1,0.8-0.2s0.5,0,0.6,0h0.3V16c0.2-0.2,0.5-0.4,0.8-0.5s0.6-0.2,1-0.2c0.1,0,0.3,0,0.4,0.1s0.3,0.1,0.4,0.1
		s0.2,0.1,0.3,0.2s0.2,0.2,0.2,0.3c0.1-0.1,0.2-0.2,0.4-0.3s0.3-0.2,0.5-0.2s0.3-0.1,0.5-0.2s0.4-0.1,0.5-0.1c0.2,0,0.5,0,0.7,0.1
		s0.4,0.2,0.5,0.4s0.3,0.4,0.3,0.6s0.1,0.5,0.1,0.8v3.3l0.6,0.2V21c-0.2,0.1-0.4,0.1-0.6,0.1s-0.4,0-0.7,0c-0.1,0-0.3,0-0.4,0
		s-0.3,0-0.4-0.1v-0.2c0.2-0.1,0.3-0.2,0.3-0.3s0.1-0.3,0.1-0.5v-2.3c0-0.3,0-0.5-0.1-0.7s-0.1-0.4-0.2-0.5s-0.2-0.2-0.4-0.3
		s-0.3-0.1-0.5-0.1c-0.2,0-0.4,0-0.6,0.1s-0.4,0.1-0.5,0.2c0,0.1,0,0.3,0.1,0.4s0,0.3,0,0.5v3.2l0.6,0.2V21
		c-0.2,0.1-0.4,0.1-0.6,0.1s-0.4,0-0.7,0c-0.1,0-0.3,0-0.4,0s-0.3,0-0.4-0.1v-0.2c0.2-0.1,0.3-0.2,0.3-0.3s0.1-0.3,0.1-0.5v-2.2
		c0-0.3,0-0.6-0.1-0.8s-0.1-0.4-0.2-0.5s-0.2-0.2-0.4-0.3s-0.3-0.1-0.5-0.1c-0.1,0-0.2,0-0.3,0s-0.2,0-0.3,0.1s-0.2,0.1-0.3,0.1
		s-0.2,0.1-0.2,0.1v4l0.7,0.2V21c-0.2,0.1-0.4,0.1-0.6,0.2s-0.5,0-0.8,0c-0.1,0-0.3,0-0.5,0s-0.3,0-0.4-0.1V20.8z"/>
	<path class="st1" d="M155,20.8c0.1,0,0.2-0.1,0.2-0.1s0.1-0.1,0.2-0.1s0.1-0.1,0.1-0.2s0.1-0.1,0.1-0.2v-4.1l-0.8-0.3v-0.3
		c0.3-0.1,0.5-0.1,0.8-0.2s0.5-0.1,0.6-0.1h0.4l-0.1,0.7v4.6l0.7,0.2V21c-0.1,0-0.2,0.1-0.3,0.1s-0.2,0-0.3,0.1s-0.2,0-0.4,0
		s-0.3,0-0.4,0c-0.1,0-0.3,0-0.5,0s-0.3,0-0.5-0.1V20.8z M156.1,14.2c-0.1,0-0.2,0-0.3,0s-0.1-0.1-0.2-0.1s-0.1-0.1-0.1-0.2
		s0-0.2,0-0.3c0-0.1,0-0.2,0-0.3s0.1-0.2,0.1-0.2s0.1-0.1,0.2-0.2s0.2-0.1,0.3-0.1c0.1,0,0.2,0,0.2,0s0.1,0.1,0.2,0.1
		s0.1,0.1,0.1,0.2s0,0.2,0,0.3c0,0.1,0,0.2-0.1,0.3s-0.1,0.2-0.1,0.2s-0.1,0.1-0.2,0.2S156.2,14.2,156.1,14.2z"/>
	<path class="st1" d="M158,20.2c0-0.1,0-0.2,0-0.3s0-0.2,0.1-0.2c0.3,0.3,0.5,0.4,0.8,0.6s0.6,0.2,0.9,0.2c0.3,0,0.6-0.1,0.8-0.2
		s0.3-0.3,0.3-0.5c0-0.1,0-0.2,0-0.3s-0.1-0.2-0.2-0.3s-0.2-0.2-0.3-0.2s-0.3-0.2-0.5-0.2l-0.6-0.3c-0.3-0.1-0.6-0.3-0.8-0.6
		s-0.3-0.5-0.3-0.9c0-0.2,0-0.5,0.1-0.7s0.2-0.4,0.4-0.6s0.4-0.3,0.7-0.4s0.5-0.1,0.9-0.1c0.2,0,0.4,0,0.6,0.1s0.3,0.1,0.4,0.1
		s0.2,0.1,0.2,0.2s0.1,0.2,0.1,0.3c0,0.1,0,0.2,0,0.3s0,0.2,0,0.2c-0.2-0.1-0.4-0.2-0.7-0.3s-0.5-0.1-0.7-0.1c-0.2,0-0.4,0-0.5,0.1
		s-0.3,0.1-0.4,0.2s-0.2,0.1-0.2,0.2s-0.1,0.2-0.1,0.3c0,0.1,0,0.2,0,0.3s0.1,0.2,0.2,0.2s0.2,0.1,0.3,0.2s0.3,0.1,0.5,0.2l0.7,0.3
		c0.2,0.1,0.4,0.2,0.5,0.3s0.3,0.2,0.4,0.3s0.2,0.3,0.2,0.4s0.1,0.3,0.1,0.5c0,0.2-0.1,0.5-0.2,0.7s-0.3,0.4-0.5,0.6
		s-0.4,0.3-0.7,0.4s-0.6,0.1-0.9,0.1c-0.5,0-0.9-0.1-1.2-0.2S158,20.6,158,20.2z"/>
	<path class="st1" d="M162.4,18.5c0-0.5,0.1-0.9,0.2-1.3s0.3-0.7,0.6-1c0.3-0.3,0.6-0.5,0.9-0.6s0.7-0.2,1.1-0.2
		c0.2,0,0.4,0,0.6,0.1s0.3,0.1,0.4,0.1s0.2,0.1,0.2,0.2s0.1,0.2,0.1,0.3c0,0.1,0,0.2,0,0.3s-0.1,0.2-0.1,0.3
		c-0.2-0.2-0.5-0.3-0.7-0.4S165.3,16,165,16c-0.2,0-0.4,0-0.6,0.1s-0.3,0.2-0.5,0.4s-0.3,0.4-0.3,0.7s-0.1,0.6-0.1,0.9
		c0,0.4,0,0.7,0.1,0.9s0.2,0.5,0.4,0.7s0.3,0.3,0.5,0.4s0.4,0.1,0.7,0.1c0.1,0,0.2,0,0.4,0s0.2-0.1,0.4-0.1s0.2-0.1,0.3-0.2
		s0.2-0.1,0.3-0.2c0,0.1,0.1,0.2,0.1,0.3c0,0.1,0,0.3-0.1,0.4s-0.2,0.2-0.3,0.3s-0.3,0.2-0.5,0.2s-0.5,0.1-0.8,0.1
		c-0.3,0-0.6-0.1-0.9-0.2s-0.5-0.3-0.8-0.6s-0.4-0.5-0.5-0.9S162.4,18.9,162.4,18.5z"/>
	<path class="st1" d="M167.3,20.8c0.1,0,0.2-0.1,0.2-0.1s0.1-0.1,0.2-0.1s0.1-0.1,0.1-0.2s0.1-0.1,0.1-0.2v-7l-0.8-0.3v-0.3
		c0.3-0.1,0.5-0.1,0.8-0.2s0.5,0,0.7,0h0.4l-0.1,0.7V16c0.2-0.2,0.5-0.4,0.7-0.5s0.6-0.2,1-0.2c0.3,0,0.5,0,0.7,0.1s0.4,0.2,0.5,0.4
		s0.3,0.4,0.3,0.6s0.1,0.5,0.1,0.8v3.4l0.6,0.2V21c-0.2,0.1-0.4,0.1-0.6,0.1s-0.4,0-0.7,0c-0.1,0-0.3,0-0.4,0s-0.3,0-0.4-0.1v-0.2
		c0.1-0.1,0.3-0.2,0.3-0.3s0.1-0.3,0.1-0.5v-2.3c0-0.3,0-0.5-0.1-0.8s-0.1-0.4-0.2-0.5s-0.2-0.2-0.4-0.3s-0.3-0.1-0.5-0.1
		c-0.1,0-0.2,0-0.3,0s-0.2,0-0.3,0.1s-0.2,0.1-0.3,0.1s-0.2,0.1-0.2,0.1v4l0.7,0.2V21c-0.1,0-0.2,0.1-0.3,0.1s-0.2,0-0.3,0.1
		s-0.2,0-0.4,0s-0.3,0-0.4,0c-0.1,0-0.3,0-0.5,0s-0.3,0-0.5-0.1V20.8z"/>
	<path class="st1" d="M173.8,18.5c0-0.5,0.1-1,0.2-1.4s0.3-0.7,0.6-1c0.2-0.3,0.5-0.5,0.8-0.6s0.6-0.2,0.9-0.2
		c0.3,0,0.6,0.1,0.9,0.2s0.5,0.3,0.7,0.4c0.2,0.2,0.3,0.4,0.4,0.7s0.1,0.6,0.1,0.9c0,0.1,0,0.2,0,0.4s0,0.3,0,0.4h-3.5
		c0,0.3,0,0.6,0.1,0.9s0.2,0.5,0.4,0.7s0.3,0.3,0.6,0.4s0.4,0.1,0.7,0.1c0.1,0,0.3,0,0.4,0s0.3-0.1,0.4-0.1s0.3-0.1,0.4-0.2
		s0.3-0.1,0.4-0.2c0,0,0,0.1,0,0.1s0,0.1,0,0.2c0,0.1,0,0.3-0.1,0.4s-0.2,0.2-0.4,0.3s-0.4,0.2-0.7,0.2s-0.5,0.1-0.9,0.1
		c-0.3,0-0.7-0.1-1-0.2s-0.6-0.3-0.8-0.6s-0.4-0.5-0.5-0.9S173.8,18.9,173.8,18.5z M177.4,17.6c0-0.3,0-0.5-0.1-0.8
		s-0.1-0.4-0.3-0.5c-0.1-0.1-0.2-0.2-0.4-0.3c-0.1-0.1-0.3-0.1-0.5-0.1c-0.2,0-0.3,0-0.5,0.1c-0.2,0.1-0.3,0.2-0.4,0.4
		c-0.1,0.2-0.2,0.3-0.3,0.6c-0.1,0.2-0.1,0.4-0.1,0.7H177.4z"/>
	<path class="st1" d="M181.2,20.7l3.8-6.6h-2.1c-0.5,0-0.8,0.3-1,0.8l-0.1,0.3h-0.4l0.1-1.8h4.7l0.1,0.3l-3.8,6.7h2.1
		c0.2,0,0.4,0,0.5,0s0.2-0.1,0.3-0.1s0.2-0.2,0.2-0.3s0.1-0.2,0.2-0.4l0.1-0.2h0.4l-0.2,1.8h-4.9L181.2,20.7z"/>
	<path class="st1" d="M186.9,19.9c0-0.3,0.1-0.5,0.2-0.7s0.3-0.4,0.6-0.6s0.6-0.3,1-0.4s0.8-0.2,1.3-0.2v-0.3c0-0.3,0-0.6-0.1-0.8
		s-0.1-0.4-0.2-0.5s-0.2-0.2-0.3-0.2s-0.3-0.1-0.5-0.1c-0.3,0-0.7,0.1-1,0.2s-0.6,0.3-0.8,0.6c0-0.1,0-0.2,0-0.4
		c0-0.2,0-0.4,0.1-0.5c0.1-0.2,0.2-0.3,0.3-0.4s0.4-0.2,0.6-0.2s0.5-0.1,0.9-0.1c0.3,0,0.6,0,0.8,0.1s0.4,0.2,0.6,0.3
		s0.3,0.3,0.4,0.5c0.1,0.2,0.1,0.4,0.1,0.7c0,0.1,0,0.2,0,0.3s0,0.2,0,0.3s0,0.2,0,0.3s0,0.2,0,0.3l0,1.9c0,0.1,0.1,0.2,0.2,0.3
		s0.2,0.2,0.3,0.3c-0.1,0.1-0.2,0.2-0.4,0.3s-0.3,0.2-0.5,0.3c-0.1-0.1-0.2-0.2-0.3-0.3s-0.2-0.2-0.2-0.3c-0.1,0.1-0.2,0.2-0.3,0.2
		s-0.3,0.1-0.4,0.2s-0.3,0.1-0.4,0.1s-0.3,0-0.5,0c-0.2,0-0.4,0-0.6-0.1s-0.3-0.2-0.5-0.3s-0.2-0.3-0.3-0.4S186.9,20.1,186.9,19.9z
		 M187.9,19.7c0,0.2,0.1,0.4,0.2,0.6s0.4,0.2,0.7,0.2c0.1,0,0.2,0,0.3,0s0.2,0,0.3-0.1s0.2-0.1,0.3-0.1s0.2-0.1,0.3-0.1v-1.7
		c-0.3,0-0.6,0-0.9,0.1s-0.5,0.2-0.7,0.3s-0.3,0.2-0.4,0.4S187.9,19.6,187.9,19.7z"/>
	<path class="st1" d="M192.3,20.8c0.1,0,0.2-0.1,0.2-0.1s0.1-0.1,0.2-0.1s0.1-0.1,0.1-0.2s0.1-0.1,0.1-0.2v-7l-0.8-0.3v-0.3
		c0.3-0.1,0.5-0.1,0.8-0.2s0.5,0,0.6,0h0.4l-0.1,0.7v4.8l0.7-0.6c0.2-0.1,0.3-0.3,0.5-0.5s0.3-0.3,0.4-0.5s0.2-0.3,0.3-0.5
		c0.1-0.2,0.1-0.3,0.1-0.5c0.1,0,0.2-0.1,0.3-0.1s0.2,0,0.3,0c0.1,0,0.2,0,0.2,0s0.2,0,0.2,0.1c0,0.1,0,0.3-0.1,0.4
		c-0.1,0.2-0.2,0.3-0.3,0.5s-0.3,0.4-0.5,0.6s-0.4,0.4-0.7,0.6l-0.4,0.3l1.8,2.2c0.2,0.2,0.3,0.4,0.5,0.4s0.3,0.1,0.4,0.1v0.3
		c-0.1,0.1-0.3,0.2-0.4,0.2s-0.3,0.1-0.5,0.1c-0.2,0-0.3,0-0.5-0.1s-0.3-0.2-0.4-0.3l-2-2.6v2.4l0.6,0.2V21c-0.1,0-0.2,0.1-0.3,0.1
		s-0.2,0-0.3,0.1s-0.2,0-0.3,0s-0.2,0-0.4,0c-0.1,0-0.3,0-0.5,0s-0.3,0-0.5-0.1V20.8z"/>
	<path class="st1" d="M197.8,18.5c0-0.5,0.1-1,0.2-1.4s0.3-0.7,0.6-1c0.2-0.3,0.5-0.5,0.8-0.6s0.6-0.2,0.9-0.2
		c0.3,0,0.6,0.1,0.9,0.2s0.5,0.3,0.7,0.4c0.2,0.2,0.3,0.4,0.4,0.7s0.1,0.6,0.1,0.9c0,0.1,0,0.2,0,0.4s0,0.3,0,0.4h-3.5
		c0,0.3,0,0.6,0.1,0.9s0.2,0.5,0.4,0.7s0.3,0.3,0.6,0.4s0.4,0.1,0.7,0.1c0.1,0,0.3,0,0.4,0s0.3-0.1,0.4-0.1s0.3-0.1,0.4-0.2
		s0.3-0.1,0.4-0.2c0,0,0,0.1,0,0.1s0,0.1,0,0.2c0,0.1,0,0.3-0.1,0.4s-0.2,0.2-0.4,0.3s-0.4,0.2-0.7,0.2s-0.5,0.1-0.9,0.1
		c-0.3,0-0.7-0.1-1-0.2s-0.6-0.3-0.8-0.6s-0.4-0.5-0.5-0.9S197.8,18.9,197.8,18.5z M201.5,17.6c0-0.3,0-0.5-0.1-0.8
		s-0.1-0.4-0.3-0.5c-0.1-0.1-0.2-0.2-0.4-0.3c-0.1-0.1-0.3-0.1-0.5-0.1c-0.2,0-0.3,0-0.5,0.1c-0.2,0.1-0.3,0.2-0.4,0.4
		c-0.1,0.2-0.2,0.3-0.3,0.6c-0.1,0.2-0.1,0.4-0.1,0.7H201.5z"/>
	<path class="st1" d="M203.3,20.8c0.1,0,0.2-0.1,0.2-0.1s0.1-0.1,0.2-0.1s0.1-0.1,0.1-0.2s0.1-0.1,0.1-0.2v-4.1l-0.8-0.3v-0.3
		c0.3-0.1,0.5-0.1,0.8-0.2s0.5,0,0.6,0h0.3V16c0.2-0.2,0.5-0.4,0.8-0.5s0.6-0.2,1-0.2c0.2,0,0.5,0,0.7,0.1s0.4,0.2,0.5,0.4
		s0.3,0.4,0.3,0.6s0.1,0.5,0.1,0.8v3.4l0.6,0.2V21c-0.3,0.1-0.8,0.2-1.3,0.2c-0.1,0-0.3,0-0.4,0s-0.3,0-0.4-0.1v-0.2
		c0.1-0.1,0.3-0.2,0.3-0.3s0.1-0.3,0.1-0.5v-2.3c0-0.3,0-0.5-0.1-0.8s-0.1-0.4-0.2-0.5s-0.2-0.2-0.4-0.3s-0.3-0.1-0.5-0.1
		c-0.2,0-0.5,0-0.7,0.1s-0.4,0.2-0.5,0.3v4l0.7,0.2V21c-0.1,0-0.2,0.1-0.3,0.1s-0.2,0-0.3,0.1s-0.2,0-0.4,0s-0.3,0-0.4,0
		c-0.1,0-0.3,0-0.5,0s-0.3,0-0.4-0.1V20.8z"/>
	<path class="st1" d="M46,31.5c0-0.5,0.1-1,0.2-1.4s0.3-0.7,0.6-1s0.5-0.5,0.8-0.6s0.6-0.2,0.9-0.2c0.3,0,0.6,0.1,0.9,0.2
		s0.5,0.3,0.7,0.4s0.3,0.4,0.4,0.7s0.1,0.6,0.1,0.9c0,0.1,0,0.2,0,0.4s0,0.3,0,0.4H47c0,0.3,0,0.6,0.1,0.9s0.2,0.5,0.4,0.7
		s0.3,0.3,0.6,0.4s0.4,0.1,0.7,0.1c0.1,0,0.3,0,0.4,0s0.3-0.1,0.4-0.1s0.3-0.1,0.4-0.2s0.3-0.1,0.4-0.2c0,0,0,0.1,0,0.1s0,0.1,0,0.2
		c0,0.1,0,0.3-0.1,0.4s-0.2,0.2-0.4,0.3s-0.4,0.2-0.7,0.2s-0.5,0.1-0.9,0.1c-0.3,0-0.7-0.1-1-0.2s-0.6-0.3-0.8-0.6s-0.4-0.5-0.5-0.9
		S46,31.9,46,31.5z M49.6,30.6c0-0.3,0-0.5-0.1-0.8c-0.1-0.2-0.1-0.4-0.3-0.5c-0.1-0.1-0.2-0.2-0.4-0.3c-0.1-0.1-0.3-0.1-0.5-0.1
		c-0.2,0-0.3,0-0.5,0.1c-0.2,0.1-0.3,0.2-0.4,0.4c-0.1,0.2-0.2,0.3-0.3,0.6C47,30.2,47,30.4,47,30.6H49.6z"/>
	<path class="st1" d="M51.4,33.8c0.1,0,0.2-0.1,0.2-0.1s0.1-0.1,0.2-0.1s0.1-0.1,0.1-0.2s0.1-0.1,0.1-0.2v-4.1l-0.8-0.3v-0.3
		c0.3-0.1,0.5-0.1,0.8-0.2s0.5,0,0.6,0H53V29c0.2-0.2,0.5-0.4,0.8-0.5s0.6-0.2,1-0.2c0.2,0,0.5,0,0.7,0.1s0.4,0.2,0.5,0.4
		s0.3,0.4,0.3,0.6s0.1,0.5,0.1,0.8v3.4l0.6,0.2V34c-0.3,0.1-0.8,0.2-1.3,0.2c-0.1,0-0.3,0-0.4,0s-0.3,0-0.4-0.1v-0.2
		c0.1-0.1,0.3-0.2,0.3-0.3s0.1-0.3,0.1-0.5v-2.3c0-0.3,0-0.5-0.1-0.8s-0.1-0.4-0.2-0.5s-0.2-0.2-0.4-0.3s-0.3-0.1-0.5-0.1
		c-0.2,0-0.5,0-0.7,0.1s-0.4,0.2-0.5,0.3v4l0.7,0.2V34c-0.1,0-0.2,0.1-0.3,0.1s-0.2,0-0.3,0.1s-0.2,0-0.4,0s-0.3,0-0.4,0
		c-0.1,0-0.3,0-0.5,0s-0.3,0-0.4-0.1V33.8z"/>
	<path class="st1" d="M60.3,33.8c0.3-0.1,0.4-0.2,0.5-0.3s0.2-0.3,0.2-0.6V27l-0.8-0.2v-0.3c0.2-0.1,0.5-0.1,0.7-0.1s0.5,0,0.7,0
		c0.2,0,0.4,0,0.6,0s0.4,0.1,0.5,0.1v0.2c-0.1,0-0.2,0.1-0.3,0.1s-0.2,0.1-0.2,0.2s-0.1,0.2-0.1,0.2s0,0.2,0,0.3v5.9l0.8,0.2V34
		c-0.1,0-0.2,0.1-0.3,0.1s-0.2,0-0.3,0.1s-0.2,0-0.4,0s-0.3,0-0.4,0c-0.2,0-0.4,0-0.6,0s-0.3,0-0.5-0.1V33.8z M62,30.2l2.8-3.2v0
		l-0.7-0.1v-0.3c0.1,0,0.3-0.1,0.4-0.1s0.2,0,0.3-0.1s0.2,0,0.3,0s0.2,0,0.3,0c0.2,0,0.3,0,0.4,0s0.3,0,0.4,0.1v0.2
		c-0.2,0.1-0.3,0.2-0.5,0.3s-0.3,0.2-0.4,0.4L63.1,30l2.1,2.7c0.1,0.1,0.2,0.2,0.3,0.3s0.2,0.2,0.3,0.3s0.2,0.2,0.3,0.2
		s0.3,0.1,0.4,0.2V34c-0.1,0.1-0.3,0.1-0.4,0.2s-0.3,0.1-0.5,0.1c-0.1,0-0.3,0-0.4,0S65.1,34.1,65,34s-0.2-0.2-0.4-0.3
		s-0.3-0.3-0.4-0.5L62,30.2L62,30.2z"/>
	<path class="st1" d="M66.9,33.8c0.1,0,0.2-0.1,0.2-0.1s0.1-0.1,0.2-0.1s0.1-0.1,0.1-0.2s0.1-0.1,0.1-0.2v-7l-0.8-0.3v-0.3
		c0.1,0,0.3-0.1,0.4-0.1s0.3,0,0.4-0.1s0.2,0,0.4,0s0.2,0,0.3,0h0.4l-0.1,0.7v7.4l0.7,0.2V34C69.1,34,69,34,68.9,34s-0.2,0-0.3,0.1
		s-0.2,0-0.4,0s-0.3,0-0.4,0c-0.1,0-0.3,0-0.5,0s-0.3,0-0.4-0.1V33.8z"/>
	<path class="st1" d="M70,33.8c0.1,0,0.2-0.1,0.2-0.1s0.1-0.1,0.2-0.1s0.1-0.1,0.1-0.2s0.1-0.1,0.1-0.2v-4.1l-0.8-0.3v-0.3
		c0.3-0.1,0.5-0.1,0.8-0.2s0.5-0.1,0.6-0.1h0.4L71.7,29v4.6l0.7,0.2V34C72.2,34,72.1,34,72,34s-0.2,0-0.3,0.1s-0.2,0-0.4,0
		s-0.3,0-0.4,0c-0.1,0-0.3,0-0.5,0s-0.3,0-0.5-0.1V33.8z M71.2,27.2c-0.1,0-0.2,0-0.3,0s-0.1-0.1-0.2-0.1s-0.1-0.1-0.1-0.2
		s0-0.2,0-0.3c0-0.1,0-0.2,0-0.3s0.1-0.2,0.1-0.2s0.1-0.1,0.2-0.2s0.2-0.1,0.3-0.1c0.1,0,0.2,0,0.2,0s0.1,0.1,0.2,0.1
		s0.1,0.1,0.1,0.2s0,0.2,0,0.3c0,0.1,0,0.2-0.1,0.3s-0.1,0.2-0.1,0.2s-0.1,0.1-0.2,0.2S71.3,27.2,71.2,27.2z"/>
	<path class="st1" d="M73.2,33.8c0.1,0,0.2-0.1,0.2-0.1s0.1-0.1,0.2-0.1s0.1-0.1,0.1-0.2s0.1-0.1,0.1-0.2v-4.1l-0.8-0.3v-0.3
		c0.3-0.1,0.5-0.1,0.8-0.2s0.5,0,0.6,0h0.3V29c0.2-0.2,0.5-0.4,0.8-0.5s0.6-0.2,1-0.2c0.1,0,0.3,0,0.4,0.1s0.3,0.1,0.4,0.1
		s0.2,0.1,0.3,0.2s0.2,0.2,0.2,0.3c0.1-0.1,0.2-0.2,0.4-0.3s0.3-0.2,0.5-0.2s0.3-0.1,0.5-0.2s0.4-0.1,0.5-0.1c0.2,0,0.5,0,0.7,0.1
		s0.4,0.2,0.5,0.4s0.3,0.4,0.3,0.6s0.1,0.5,0.1,0.8v3.3l0.6,0.2V34c-0.2,0.1-0.4,0.1-0.6,0.1s-0.4,0-0.7,0c-0.1,0-0.3,0-0.4,0
		s-0.3,0-0.4-0.1v-0.2c0.2-0.1,0.3-0.2,0.3-0.3s0.1-0.3,0.1-0.5v-2.3c0-0.3,0-0.5-0.1-0.7s-0.1-0.4-0.2-0.5s-0.2-0.2-0.4-0.3
		s-0.3-0.1-0.5-0.1c-0.2,0-0.4,0-0.6,0.1s-0.4,0.1-0.5,0.2c0,0.1,0,0.3,0.1,0.4s0,0.3,0,0.5v3.2l0.6,0.2V34
		c-0.2,0.1-0.4,0.1-0.6,0.1s-0.4,0-0.7,0c-0.1,0-0.3,0-0.4,0s-0.3,0-0.4-0.1v-0.2c0.2-0.1,0.3-0.2,0.3-0.3s0.1-0.3,0.1-0.5v-2.2
		c0-0.3,0-0.6-0.1-0.8s-0.1-0.4-0.2-0.5s-0.2-0.2-0.4-0.3s-0.3-0.1-0.5-0.1c-0.1,0-0.2,0-0.3,0s-0.2,0-0.3,0.1s-0.2,0.1-0.3,0.1
		s-0.2,0.1-0.2,0.1v4l0.7,0.2V34c-0.2,0.1-0.4,0.1-0.6,0.2s-0.5,0-0.8,0c-0.1,0-0.3,0-0.5,0s-0.3,0-0.4-0.1V33.8z"/>
	<path class="st1" d="M82.8,32.9c0-0.3,0.1-0.5,0.2-0.7s0.3-0.4,0.6-0.6s0.6-0.3,1-0.4s0.8-0.2,1.3-0.2v-0.3c0-0.3,0-0.6-0.1-0.8
		s-0.1-0.4-0.2-0.5s-0.2-0.2-0.3-0.2S85,29,84.9,29c-0.3,0-0.7,0.1-1,0.2s-0.6,0.3-0.8,0.6c0-0.1,0-0.2,0-0.4c0-0.2,0-0.4,0.1-0.5
		s0.2-0.3,0.3-0.4s0.4-0.2,0.6-0.2s0.5-0.1,0.9-0.1c0.3,0,0.6,0,0.8,0.1s0.4,0.2,0.6,0.3s0.3,0.3,0.4,0.5s0.1,0.4,0.1,0.7
		c0,0.1,0,0.2,0,0.3s0,0.2,0,0.3s0,0.2,0,0.3s0,0.2,0,0.3l0,1.9c0,0.1,0.1,0.2,0.2,0.3s0.2,0.2,0.3,0.3c-0.1,0.1-0.2,0.2-0.4,0.3
		s-0.3,0.2-0.5,0.3c-0.1-0.1-0.2-0.2-0.3-0.3s-0.2-0.2-0.2-0.3c-0.1,0.1-0.2,0.2-0.3,0.2s-0.3,0.1-0.4,0.2s-0.3,0.1-0.4,0.1
		s-0.3,0-0.5,0c-0.2,0-0.4,0-0.6-0.1s-0.3-0.2-0.5-0.3s-0.2-0.3-0.3-0.4S82.8,33.1,82.8,32.9z M83.8,32.7c0,0.2,0.1,0.4,0.2,0.6
		s0.4,0.2,0.7,0.2c0.1,0,0.2,0,0.3,0s0.2,0,0.3-0.1s0.2-0.1,0.3-0.1s0.2-0.1,0.3-0.1v-1.7c-0.3,0-0.6,0-0.9,0.1s-0.5,0.2-0.7,0.3
		s-0.3,0.2-0.4,0.4S83.8,32.6,83.8,32.7z"/>
	<path class="st1" d="M88.1,32.9c0-0.3,0.1-0.5,0.2-0.7s0.3-0.4,0.6-0.6s0.6-0.3,1-0.4s0.8-0.2,1.3-0.2v-0.3c0-0.3,0-0.6-0.1-0.8
		s-0.1-0.4-0.2-0.5s-0.2-0.2-0.3-0.2S90.4,29,90.2,29c-0.3,0-0.7,0.1-1,0.2s-0.6,0.3-0.8,0.6c0-0.1,0-0.2,0-0.4c0-0.2,0-0.4,0.1-0.5
		s0.2-0.3,0.3-0.4s0.4-0.2,0.6-0.2s0.5-0.1,0.9-0.1c0.3,0,0.6,0,0.8,0.1s0.4,0.2,0.6,0.3s0.3,0.3,0.4,0.5s0.1,0.4,0.1,0.7
		c0,0.1,0,0.2,0,0.3s0,0.2,0,0.3s0,0.2,0,0.3s0,0.2,0,0.3l0,1.9c0,0.1,0.1,0.2,0.2,0.3s0.2,0.2,0.3,0.3c-0.1,0.1-0.2,0.2-0.4,0.3
		s-0.3,0.2-0.5,0.3c-0.1-0.1-0.2-0.2-0.3-0.3s-0.2-0.2-0.2-0.3c-0.1,0.1-0.2,0.2-0.3,0.2s-0.3,0.1-0.4,0.2s-0.3,0.1-0.4,0.1
		s-0.3,0-0.5,0c-0.2,0-0.4,0-0.6-0.1s-0.3-0.2-0.5-0.3s-0.2-0.3-0.3-0.4S88.1,33.1,88.1,32.9z M89.2,32.7c0,0.2,0.1,0.4,0.2,0.6
		s0.4,0.2,0.7,0.2c0.1,0,0.2,0,0.3,0s0.2,0,0.3-0.1s0.2-0.1,0.3-0.1s0.2-0.1,0.3-0.1v-1.7c-0.3,0-0.6,0-0.9,0.1s-0.5,0.2-0.7,0.3
		s-0.3,0.2-0.4,0.4S89.2,32.6,89.2,32.7z"/>
	<path class="st1" d="M94.1,32.5c0-0.3,0-0.6,0-0.9s0-0.6,0-0.9l0-1.6h-0.7v-0.4l1.3-1.3l0.4,0l-0.1,1.1h1.6l-0.1,0.7h-1.5l0,1.5
		c0,0.3,0,0.5,0,0.7s0,0.5,0,0.7c0,0.2,0,0.4,0.1,0.6s0.1,0.3,0.1,0.4s0.1,0.2,0.2,0.2s0.2,0.1,0.3,0.1c0.2,0,0.3,0,0.5-0.1
		s0.3-0.1,0.4-0.2l0.1,0c0,0.7-0.5,1.1-1.3,1.1c-0.5,0-0.8-0.1-1.1-0.4S94.1,33.1,94.1,32.5z"/>
</g>
</svg>
