<?xml version="1.0" encoding="UTF-8"?> <svg xmlns="http://www.w3.org/2000/svg" width="198.15" height="46.57"><style>.st0{fill:#241f48}</style><path class="st0" d="M84.88 0c-.77 0-1.39.62-1.39 1.39v12.89c-2.21-2.94-5.54-4.82-9.27-4.82-6.62 0-12.01 5.93-12.01 13.21s5.39 13.21 12.01 13.21c3.73 0 7.06-1.88 9.27-4.82v3.22c0 .77.62 1.39 1.39 1.39s1.39-.62 1.39-1.39V1.39c0-.77-.62-1.39-1.39-1.39zM74.22 33.11c-5.09 0-9.23-4.68-9.23-10.43s4.14-10.43 9.23-10.43 9.23 4.68 9.23 10.43-4.14 10.43-9.23 10.43zM196.76 35.7c-.77 0-1.39-.62-1.39-1.39V1.39c0-.77.62-1.39 1.39-1.39.77 0 1.39.62 1.39 1.39v32.92c0 .77-.62 1.39-1.39 1.39zM97.09 35.7c-.77 0-1.39-.62-1.39-1.39V11.04c0-.77.62-1.39 1.39-1.39.77 0 1.39.62 1.39 1.39v23.27c0 .77-.62 1.39-1.39 1.39zM139.37 35.7c-.77 0-1.39-.62-1.39-1.39V11.04c0-.77.62-1.39 1.39-1.39.77 0 1.39.62 1.39 1.39v23.27c0 .77-.62 1.39-1.39 1.39zM161.45 34.14a1.39 1.39 0 0 0-1.59-1.16c-1.56.24-2.87-.04-3.78-.82-.86-.74-1.38-1.93-1.38-3.19V12.51h3.87c.77 0 1.39-.62 1.39-1.39 0-.77-.62-1.39-1.39-1.39h-3.87V4.54c0-.77-.62-1.39-1.39-1.39-.77 0-1.39.62-1.39 1.39v5.18h-2.84c-.77 0-1.39.62-1.39 1.39 0 .77.62 1.39 1.39 1.39h2.84v16.45c0 2.09.86 4.03 2.35 5.31.89.76 2.35 1.58 4.53 1.58.47 0 .96-.04 1.49-.12.76-.11 1.28-.83 1.16-1.58z"></path><circle class="st0" cx="139.37" cy="2.81" r="1.73"></circle><circle class="st0" cx="97.09" cy="2.81" r="1.73"></circle><path class="st0" d="M25.22 9.62c-.79 0-1.44.64-1.44 1.43v26.33L2.56 10.16c-.01-.01-.01-.02-.02-.02v-.01a1.44 1.44 0 0 0-1.1-.51c-.8 0-1.44.64-1.44 1.44v30.5c0 .79.64 1.43 1.44 1.43s1.44-.64 1.44-1.43V15.21L24.1 42.45c.01.01.01.02.02.03l.01.01a1.438 1.438 0 0 0 2.54-.92v-30.5c-.01-.81-.65-1.45-1.45-1.45zM54.89 42.54H36.28c-.76 0-1.38-.62-1.38-1.38V11.04c0-.76.62-1.38 1.38-1.38.76 0 1.38.62 1.38 1.38v28.75h17.23a1.374 1.374 0 1 1 0 2.75zM85.22 42.55H63.76c-.77 0-1.39-.62-1.39-1.39s.62-1.39 1.39-1.39h21.46c.77 0 1.39.62 1.39 1.39s-.63 1.39-1.39 1.39zM124.39 39.79l-15.7-.02 4.44-6.45c1.73.97 3.66 1.49 5.68 1.5h.04c6.66 0 12.09-5.66 12.11-12.63.01-3.68-1.49-7.01-3.88-9.33l2.97-4.14c.45-.62.31-1.49-.32-1.94-.62-.45-1.49-.31-1.94.32l-2.92 4.06c-1.76-1.06-3.8-1.67-5.97-1.68h-.04c-3.23 0-6.27 1.32-8.56 3.71-2.28 2.38-3.54 5.55-3.55 8.92-.01 3.37 1.23 6.55 3.49 8.94.21.22.42.43.64.63l-5.98 8.69c-.29.43-.33.98-.09 1.44.24.46.71.74 1.23.74l18.34.03c.62 0 .91.43 1 .62.09.18.27.67-.1 1.17a1.389 1.389 0 0 0 2.24 1.64c.88-1.19 1.01-2.75.34-4.07a3.848 3.848 0 0 0-3.47-2.15zM109.5 22.11c.01-2.66 1-5.15 2.79-7.02 1.76-1.84 4.09-2.85 6.56-2.85h.03c5.15.02 9.33 4.48 9.31 9.94-.02 5.45-4.21 9.88-9.35 9.88h-.03c-2.48-.01-4.82-1.04-6.58-2.9-1.76-1.89-2.74-4.39-2.73-7.05zM177.04 9.42c-4.56 0-8.16 2.69-9.86 4.99-.46.62-.33 1.49.29 1.95.62.46 1.49.33 1.95-.29 1.32-1.78 4.1-3.86 7.62-3.86 4.89 0 6.66 3.27 6.69 6.36.01.43-.12.64-.31.79-.03.03-.07.05-.11.08-.01.01-.02.01-.03.02-.03.02-.06.04-.1.06-1.12.63-3.82 1.26-5.42 1.58-4.82.96-11.41 2.27-11.41 8.08 0 4.25 3.32 6.68 9.11 6.68 2.6 0 5.95-.93 8.28-3.18v1.64c0 .77.62 1.39 1.39 1.39.77 0 1.39-.62 1.39-1.39V18.66c-.01-4.6-2.94-9.24-9.48-9.24zm-1.58 23.64c-4.2 0-6.32-1.31-6.32-3.9 0-3.27 3.8-4.28 9.17-5.35 2.08-.41 4.01-.8 5.43-1.47v3.39c-.01 7.25-8.2 7.33-8.28 7.33z"></path></svg> 