<?xml version="1.0" encoding="utf-8"?>
<!-- Generator: Adobe Illustrator 24.3.0, SVG Export Plug-In . SVG Version: 6.00 Build 0)  -->
<svg version="1.1" id="Layer_1" xmlns="http://www.w3.org/2000/svg" xmlns:xlink="http://www.w3.org/1999/xlink" x="0px" y="0px"
	 viewBox="0 0 101.4 58.4" style="enable-background:new 0 0 101.4 58.4;" xml:space="preserve" width="101.4" height="58.4">
<style type="text/css">
	.st0{fill-rule:evenodd;clip-rule:evenodd;fill:#000FA0;}
</style>
<g id="Symbols">
	<g id="Group-4" transform="translate(1.000000, 0.000000)">
		<g id="Logo---Blue">
			<g id="Group-8" transform="translate(-0.249370, 0.000000)">
				<polygon id="Fill-1_1_" class="st0" points="42.7,1.4 39.2,3.6 39.2,56.5 52.2,56.5 52.2,1.4 				"/>
				<polygon id="Fill-2" class="st0" points="34.1,1.4 26.9,12.5 48,12.5 48,1.4 				"/>
				<g id="Group-7" transform="translate(0.000000, 16.558441)">
					<path id="Fill-3" class="st0" d="M0,35.2l4.9-7.9c4.3,2.8,8.9,4.3,12.8,4.3c2.3,0,3.4-0.7,3.4-2v-0.1c0-1.5-2.1-2.1-6.1-3.3
						C7.6,24.3,1.7,21.8,1.7,14.3v-0.1c0-8,6.3-12.4,15-12.4c5.4,0,11.1,1.6,15.4,4.4l-4.5,8.3c-3.9-2.2-8.1-3.5-11-3.5
						c-2,0-3,0.8-3,1.9V13c0,1.5,2.2,2.1,6.1,3.3c7.4,2.1,13.2,4.6,13.2,11.9v0.1c0,8.2-6.1,12.5-15.2,12.5C11.3,40.8,5.1,39,0,35.2
						"/>
					<path id="Fill-5" class="st0" d="M58.1,21.2v-0.1c0-10.6,8.7-19.6,20.6-19.6s20.6,8.8,20.6,19.4V21c0,10.6-8.7,19.6-20.7,19.6
						C66.8,40.6,58.1,31.8,58.1,21.2 M86.6,21.2v-0.1c0-4.6-3.4-8.5-8-8.5c-4.8,0-7.8,3.8-7.8,8.4v0.1c0,4.6,3.3,8.4,7.9,8.4
						C83.5,29.5,86.6,25.7,86.6,21.2"/>
				</g>
			</g>
		</g>
	</g>
</g>
</svg>
