<?xml version="1.0" encoding="utf-8"?>
<!-- Generator: Adobe Illustrator 24.3.0, SVG Export Plug-In . SVG Version: 6.00 Build 0)  -->
<svg version="1.1" id="logo" xmlns="http://www.w3.org/2000/svg" xmlns:xlink="http://www.w3.org/1999/xlink" x="0px" y="0px"
	 viewBox="0 0 44.54 15.58" height="100" width="auto" style="enable-background:new 0 0 44.54 15.58;" xml:space="preserve">
<style type="text/css">
	.st0{fill:none;}
</style>
<g>
	<g>
		<rect x="-6.68" y="-6.68" class="st0" width="57.69" height="28.79"/>
	</g>
	<path d="M4.17,4.49c0,1.75-0.73,2.31-2.09,2.31C0.52,6.8,0,6.02,0,4.4V0h1.03v4.32c0,0.59-0.04,1.7,1.06,1.7
		c0.91,0,1.07-0.66,1.07-1.65V0h1.01V4.49z"/>
	<path d="M31.86,15.43l-2.01-5.77v5.77h-0.86V8.76h1.51l2.01,5.77V8.76h0.92v6.68H31.86z"/>
	<path d="M8.38,6.68L6.37,0.91v5.77H5.51V0h1.51l2.01,5.77V0h0.92v6.68H8.38z"/>
	<path d="M11.51,6.68V0h1.04v6.68H11.51z"/>
	<path d="M33.52,6.68V0h1.04v6.68H33.52z"/>
	<path d="M16.29,6.68h-1.22L13.38,0h1.08l1.27,5.73L17.04,0h1.01L16.29,6.68z"/>
	<path d="M18.86,6.68V0h3.31v0.8h-2.28v2.04h2.13v0.77h-2.13v2.27h2.34v0.8H18.86z"/>
	<path d="M24.41,15.43V8.76h3.31v0.8h-2.28v2.04h2.13v0.77h-2.13v2.27h2.34v0.8H24.41z"/>
	<path d="M39.21,15.43V8.76h3.31v0.8h-2.28v2.04h2.13v0.77h-2.13v2.27h2.34v0.8H39.21z"/>
	<path d="M26.2,6.68c-0.09-0.64-0.09-1.62-0.1-1.75c-0.02-0.5-0.09-0.82-0.19-0.96C25.78,3.79,25.5,3.7,25.05,3.7h-0.62v2.98H23.4V0
		h1.92c1.1,0,1.91,0.27,1.91,1.69c0,0.9-0.36,1.44-1.09,1.62c0.38,0.03,0.63,0.16,0.77,0.39c0.11,0.17,0.21,0.57,0.21,1.07
		c0,0.19,0.04,1.5,0.14,1.91H26.2z M26.18,1.77c0-0.77-0.41-0.99-1.06-0.99h-0.69v2.14h0.54C25.86,2.92,26.18,2.68,26.18,1.77z"/>
	<path d="M32.26,5c0,1.2-0.66,1.8-1.97,1.8c-1.47,0-1.98-0.59-1.98-1.99V4.73h1.06v0.07c0,0.79,0.2,1.23,0.92,1.23
		c0.61,0,0.92-0.32,0.92-0.96c0-0.57-0.35-0.84-0.64-1.03C30.42,3.96,30.24,3.84,30,3.7c-0.99-0.61-1.6-1.01-1.6-2.09
		c0-1.11,0.68-1.73,1.96-1.73c1.22,0,1.83,0.56,1.83,1.67v0.24h-1.04V1.61c0-0.65-0.28-0.97-0.84-0.97c-0.51,0-0.86,0.29-0.86,0.89
		c0,0.66,0.47,0.88,0.91,1.17c0.15,0.1,0.31,0.2,0.47,0.3C31.89,3.67,32.26,3.97,32.26,5z"/>
	<path d="M37.99,0.8v5.88h-1.03V0.8h-1.54V0h4.12v0.8H37.99z"/>
	<path d="M14.03,9.55v5.88H13V9.55h-1.54v-0.8h4.12v0.8H14.03z"/>
	<path d="M36.82,9.55v5.88h-1.03V9.55h-1.54v-0.8h4.12v0.8H36.82z"/>
	<path d="M22.1,15.43H20.9l-1.04-5.6l-1.15,5.6h-1.21l-1.42-6.68h1.09l0.99,5.58l1.15-5.58h1.21l1.05,5.58l1.06-5.58h0.97
		L22.1,15.43z"/>
	<path d="M44.54,15.04c0,0.3-0.24,0.54-0.54,0.54c-0.3,0-0.54-0.24-0.54-0.54c0-0.3,0.24-0.54,0.54-0.54
		C44.3,14.5,44.54,14.74,44.54,15.04z"/>
	<g>
		<path d="M42.52,4.13v2.55h-1.03V4.13L39.73,0h1.15l1.2,3.19L43.31,0h1.06L42.52,4.13z"/>
		<path d="M4.28,12.15c0,1.21-0.1,2.02-0.31,2.45c-0.3,0.63-0.92,0.95-1.86,0.95c-0.89,0-1.49-0.3-1.79-0.91
			c-0.12-0.26-0.21-0.59-0.26-1.01C0.02,13.32,0,12.83,0,12.16c0-0.81,0.03-1.39,0.08-1.75c0.07-0.5,0.23-0.89,0.47-1.18
			c0.35-0.4,0.87-0.6,1.58-0.6c0.72,0,1.25,0.18,1.58,0.54c0.25,0.26,0.41,0.66,0.48,1.18C4.25,10.72,4.28,11.32,4.28,12.15z
			 M3.21,12.03c0-0.81-0.03-1.36-0.08-1.67C3,9.72,2.67,9.4,2.13,9.4c-0.53,0-0.87,0.34-1.01,1.02c-0.02,0.12-0.04,0.32-0.06,0.59
			c-0.01,0.27-0.02,0.62-0.02,1.05c0,0.4,0,0.74,0.01,1.01c0.01,0.27,0.03,0.48,0.05,0.63c0.06,0.36,0.15,0.63,0.3,0.8
			c0.15,0.19,0.39,0.29,0.72,0.29c0.55,0,0.88-0.34,1-1.03c0.02-0.14,0.04-0.35,0.06-0.64C3.2,12.83,3.21,12.47,3.21,12.03z"/>
		<path d="M6.61,9.55v2.05h1.98v0.78H6.61v3.06H5.58V8.76H8.7v0.79H6.61z"/>
	</g>
</g>
</svg>
