<?xml version="1.0" encoding="utf-8"?>
<!-- Generator: Adobe Illustrator 24.3.0, SVG Export Plug-In . SVG Version: 6.00 Build 0)  -->
<svg version="1.1" xmlns="http://www.w3.org/2000/svg" xmlns:xlink="http://www.w3.org/1999/xlink" x="0px" y="0px"
	 viewBox="0 0 228.8 57.5" height="200px" width="auto" style="enable-background:new 0 0 228.8 57.5;" xml:space="preserve">
<style type="text/css">
	.st0{fill:none;}
	.st1{fill:#FFD300;}
	.st2{clip-path:url(#SVGID_2_);}
	.st3{clip-path:url(#SVGID_2_);fill:#FFFFFF;}
	.st4{fill:#E50043;}
	.st5{fill:#FFFFFF;}
</style>
<g id="background">
	<rect x="-43.05" y="-36.51" class="st0" width="323.15" height="127.56"/>
</g>
<g id="UU_logo">
	<g>
		
			<ellipse transform="matrix(0.9849 -0.1734 0.1734 0.9849 -4.5429 5.369)" class="st0" cx="28.46" cy="28.68" rx="40.4" ry="40.4"/>
		<g>
			<polygon class="st1" points="24.26,2.66 24.77,2 25.64,1.9 26.29,2.41 30.61,2.41 31.27,1.9 32.13,2 32.65,2.66 36.84,3.69 
				37.6,3.35 38.41,3.66 38.75,4.42 42.58,6.42 43.39,6.27 44.11,6.76 44.26,7.58 47.5,10.45 48.32,10.5 48.9,11.15 48.85,11.98 
				51.3,15.53 52.1,15.78 52.5,16.55 52.26,17.34 53.79,21.39 54.5,21.82 54.71,22.66 54.28,23.37 54.8,27.66 55.39,28.25 
				55.39,29.12 54.8,29.71 54.28,33.99 54.71,34.7 54.5,35.55 53.79,35.98 52.26,40.02 52.5,40.81 52.1,41.59 51.31,41.83 
				48.85,45.39 48.9,46.22 48.32,46.87 47.5,46.92 44.26,49.78 44.11,50.6 43.4,51.1 42.58,50.94 38.75,52.95 38.41,53.71 
				37.6,54.02 36.84,53.68 32.65,54.71 32.14,55.37 31.27,55.47 30.62,54.96 26.3,54.96 25.64,55.47 24.78,55.37 24.27,54.71 
				20.07,53.68 19.31,54.02 18.5,53.71 18.16,52.95 14.34,50.95 13.52,51.1 12.8,50.6 12.65,49.78 9.42,46.92 8.59,46.87 
				8.01,46.22 8.06,45.39 5.61,41.84 4.81,41.59 4.41,40.82 4.66,40.02 3.12,35.98 2.41,35.56 2.2,34.71 2.63,34 2.11,29.71 
				1.52,29.12 1.52,28.25 2.11,27.66 2.63,23.38 2.2,22.67 2.41,21.82 3.12,21.39 4.65,17.35 4.41,16.56 4.81,15.78 5.61,15.54 
				8.06,11.98 8.01,11.15 8.59,10.5 9.42,10.45 12.65,7.59 12.8,6.77 13.51,6.27 14.33,6.42 18.16,4.42 18.5,3.66 19.31,3.35 
				20.07,3.69 			"/>
			<g>
				<defs>
					<path id="SVGID_1_" d="M28.46,55.62c14.87,0,26.93-12.06,26.93-26.93c0-14.87-12.06-26.93-26.93-26.93
						c-14.88,0-26.93,12.06-26.93,26.93C1.52,43.56,13.58,55.62,28.46,55.62z"/>
				</defs>
				<clipPath id="SVGID_2_">
					<use xlink:href="#SVGID_1_"  style="overflow:visible;"/>
				</clipPath>
				<path class="st2" d="M31.31,1.67l-2.86,16.24L25.6,1.67 M32.15,1.77l-1.11,16.45L37.7,3.14 M38.48,3.44l-5.02,15.71L43.54,6.09
					 M44.23,6.57L35.6,20.62l12.9-10.26 M49.06,10.99L37.32,22.57l14.98-6.88 M52.7,16.44l-14.17,8.43l16.19-3.09 M54.93,22.59
					l-15.77,4.79l16.46,0.88 M55.61,29.1l-16.46,0.88l15.77,4.79 M54.72,35.59L38.53,32.5l14.17,8.43 M52.31,41.68l-14.98-6.88
					l11.74,11.57 M48.5,47.01L35.6,36.75l8.63,14.05 M43.54,51.28L33.46,38.23l5.02,15.71 M31.31,55.69l-2.86-16.24L25.6,55.69
					 M24.76,55.59l1.11-16.45l-6.66,15.08 M18.43,53.93l5.02-15.71L13.38,51.28 M12.68,50.8l8.63-14.05L8.41,47.01 M7.85,46.38
					l11.74-11.57L4.61,41.68 M4.21,40.93l14.17-8.43L2.19,35.59 M1.99,34.78l15.77-4.79L1.3,29.1 M1.3,28.26l16.46-0.88L1.99,22.59
					 M2.19,21.78l16.19,3.09L4.21,16.44 M4.61,15.69l14.99,6.88L7.85,10.99 M8.41,10.36l12.91,10.26L12.68,6.57 M13.38,6.09
					l10.07,13.05L18.43,3.44 M19.22,3.14l6.66,15.08L24.76,1.77 M37.7,54.23l-6.66-15.08l1.11,16.45"/>
				<path class="st3" d="M36.15,54.66l0.78-2.5l-0.6-1.35l-0.2,0.78c-0.41,0.14-0.82,0.27-1.23,0.38l-0.29-1.01
					c-0.76,0.21-1.54,0.38-2.32,0.52l0.14,0.84c0.48-0.08,0.95-0.17,1.49-0.3l0.17,0.66c-0.5,0.12-0.94,0.21-1.38,0.28l0.13,0.76
					c0.47-0.08,0.92-0.17,1.44-0.29l0.16,0.65c-0.58,0.13-1.1,0.24-1.62,0.33l0.16,0.99 M35.46,54.07l-0.37-1.35
					c0.27-0.07,0.56-0.16,0.84-0.25l-0.42,1.59L35.46,54.07z M46.29,8.31l-2.04,2.35c0.42,0.37,0.83,0.75,1.22,1.14l-0.61,0.6
					c-0.6-0.6-1.22-1.17-1.88-1.7l2.51-3.07 M53.59,18.58l-3.7,1.48c0.12,0.28,0.23,0.58,0.33,0.86l3.75-1.33 M55.45,26.45
					l-3.07-0.62l0-0.01l2.84-1.29l-0.18-1.04l-3.71,1.93c0.05,0.36,0.09,0.72,0.13,1.08l4.05,0.95 M54.28,36.83l-0.95-0.3
					c-0.1,0.31-0.2,0.61-0.31,0.92l-2.81-1.01c-0.1,0.28-0.21,0.58-0.32,0.86l2.76,1.12c-0.12,0.31-0.25,0.61-0.38,0.91l0.92,0.41
					 M51.04,43.63l-3.32-2.21c-0.16,0.25-0.35,0.52-0.52,0.76l3.22,2.33 M47.53,47.91l-0.7-0.71c-0.23,0.23-0.46,0.45-0.7,0.67
					l-2.02-2.2c-0.22,0.2-0.46,0.42-0.69,0.61l1.93,2.27c-0.25,0.21-0.51,0.42-0.76,0.63l0.62,0.78 M41.51,52.42l-1.92-3.5
					c-0.26,0.15-0.54,0.29-0.81,0.43l1.78,3.57 M22.52,55.12l0.88-3.89c-0.3-0.07-0.61-0.14-0.9-0.22l-1.03,3.85 M16.97,53.22
					l1.7-3.6c-0.77-0.36-1.51-0.76-2.24-1.2l-0.44,0.73c0.48,0.29,0.96,0.56,1.46,0.82l-1.43,2.78 M11.44,49.75l2.5-3.08
					c-0.66-0.53-1.29-1.1-1.88-1.7l-0.61,0.6c0.39,0.4,0.8,0.78,1.22,1.14l-2.05,2.34 M5.61,43.23l3-0.88l0.01,0.01L6.7,44.82
					l0.65,0.83l2.38-3.43c-0.21-0.29-0.42-0.59-0.62-0.89l-4.03,1.04 M1.8,33.49l0.98-0.18C2.72,33,2.67,32.67,2.63,32.36l2.95-0.42
					c-0.04-0.3-0.08-0.62-0.11-0.91l-2.96,0.3C2.47,31,2.44,30.67,2.42,30.34L1.43,30.4 M1.38,27.04l4.01,0.23
					c0.02-0.31,0.04-0.61,0.07-0.92l-1.49-0.15c0-0.03,0.01-0.1,0.02-0.15c0.05-0.27,0.37-0.47,0.72-0.6
					c0.28-0.11,0.9-0.27,0.9-0.27c0.05-0.35,0.1-0.68,0.19-1.03c0,0-1.05,0.36-1.43,0.58C4.13,24.88,4,24.95,3.85,25.13l-0.02,0
					c-0.01-0.61-0.37-1-0.95-1.04c-0.7-0.05-1.07,0.58-1.17,1.35l-0.17-0.01 M2.94,25.09c0.39,0.04,0.44,0.41,0.41,0.65
					c-0.02,0.14-0.03,0.3-0.05,0.43l-0.95-0.1c0.02-0.16,0.02-0.3,0.04-0.45C2.42,25.22,2.62,25.05,2.94,25.09z M2.96,19.53
					l3.26,2.88c0.09-0.33,0.19-0.66,0.3-0.98l-0.71-0.57c0.15-0.43,0.31-0.85,0.48-1.27l0.91,0.04c0.14-0.32,0.29-0.65,0.44-0.97
					l-4.3-0.12 M3.95,19.38l1.56,0.13C5.4,19.79,5.3,20.07,5.2,20.35l-1.25-0.96L3.95,19.38z M9.08,9.76l2.85,2.78
					c0.19-0.2,0.39-0.39,0.59-0.59l-1.77-1.85l2.81,0.93c0.26-0.22,0.53-0.44,0.8-0.64l-2.37-3.19l-0.79,0.62l1.68,2.06L9.97,8.89
					 M32.68,5.87c0.34,0.21,0.72,0.4,1.11,0.5c0.83,0.2,1.66,0.03,1.89-0.89c0.13-0.53-0.04-0.97-0.94-1.43
					c-0.41-0.2-0.49-0.35-0.45-0.51c0.06-0.24,0.27-0.36,0.74-0.25c0.2,0.05,0.53,0.2,0.75,0.35l0.44-0.62
					c-0.35-0.24-0.71-0.43-1.13-0.54c-0.71-0.17-1.61,0-1.81,0.81c-0.18,0.73,0.21,1.06,0.62,1.3c0.41,0.24,0.84,0.38,0.75,0.72
					c-0.09,0.35-0.42,0.33-0.72,0.26c-0.27-0.06-0.62-0.25-0.83-0.37L32.68,5.87z M41.03,4.74c1.16,0.61,1.41,1.78,0.89,2.77
					c-0.52,0.99-1.63,1.45-2.79,0.84c-1.17-0.61-1.42-1.78-0.9-2.78C38.75,4.59,39.86,4.13,41.03,4.74z M39.5,7.64
					c0.51,0.27,1.11,0.14,1.5-0.61c0.39-0.75,0.16-1.32-0.35-1.58c-0.51-0.27-1.1-0.14-1.5,0.61C38.76,6.81,38.99,7.37,39.5,7.64z
					 M52.33,30.48c-0.1,0.22-0.24,0.59-0.27,0.87c-0.04,0.31-0.02,0.64,0.34,0.69c0.35,0.04,0.44-0.4,0.63-0.84
					c0.19-0.43,0.47-0.86,1.22-0.77c0.82,0.1,1.11,0.97,1.02,1.7c-0.05,0.43-0.2,0.81-0.39,1.19l-0.68-0.37
					c0.12-0.24,0.23-0.58,0.26-0.79c0.06-0.47-0.09-0.67-0.34-0.7c-0.16-0.02-0.3,0.07-0.45,0.51c-0.34,0.95-0.76,1.17-1.3,1.11
					c-0.95-0.11-1.22-0.92-1.11-1.77c0.05-0.4,0.19-0.8,0.36-1.16L52.33,30.48z M6.5,38.22c-0.02-0.25-0.06-0.64-0.16-0.89
					c-0.11-0.29-0.29-0.58-0.62-0.45C5.38,37,5.51,37.43,5.54,37.9c0.04,0.47-0.02,0.98-0.72,1.25c-0.78,0.3-1.43-0.35-1.69-1.03
					c-0.15-0.4-0.2-0.81-0.2-1.24L3.7,36.9c0,0.27,0.07,0.62,0.14,0.82c0.17,0.45,0.4,0.55,0.62,0.46c0.15-0.05,0.23-0.21,0.16-0.66
					c-0.14-1,0.13-1.39,0.64-1.58c0.89-0.34,1.5,0.24,1.81,1.05c0.14,0.38,0.21,0.8,0.23,1.2L6.5,38.22z M15.88,4.74
					c1.16-0.61,2.27-0.15,2.79,0.84c0.52,0.99,0.27,2.16-0.89,2.77c-1.16,0.61-2.27,0.15-2.79-0.84
					C14.47,6.52,14.72,5.35,15.88,4.74z M17.41,7.65c0.51-0.27,0.75-0.83,0.35-1.58c-0.4-0.75-0.99-0.88-1.5-0.61
					c-0.51,0.27-0.74,0.83-0.35,1.58C16.3,7.78,16.9,7.91,17.41,7.65z M21.65,5.73c0.25,0.01,0.64,0.01,0.91-0.05
					c0.3-0.08,0.61-0.21,0.52-0.57c-0.09-0.35-0.53-0.27-1-0.29c-0.47-0.02-0.97-0.14-1.15-0.86c-0.2-0.81,0.52-1.38,1.23-1.56
					c0.42-0.1,0.83-0.1,1.25-0.05l-0.1,0.76c-0.27-0.03-0.63-0.01-0.83,0.04c-0.47,0.12-0.6,0.33-0.54,0.56
					c0.04,0.15,0.18,0.25,0.63,0.24c1.01-0.02,1.37,0.3,1.5,0.82c0.23,0.92-0.42,1.46-1.26,1.67c-0.39,0.1-0.82,0.11-1.22,0.08
					L21.65,5.73z M28.46,4.68c0.54,0,0.97-0.43,0.97-0.97c0-0.54-0.44-0.97-0.97-0.97c-0.54,0-0.97,0.44-0.97,0.97
					C27.48,4.24,27.92,4.68,28.46,4.68z M48.47,13.7c0.44-0.3,1.05-0.2,1.35,0.25c0.3,0.44,0.2,1.05-0.25,1.35
					c-0.44,0.31-1.05,0.2-1.35-0.25C47.91,14.61,48.02,14,48.47,13.7z M28.46,52.69c0.54,0,0.97,0.44,0.97,0.97
					c0,0.54-0.44,0.97-0.97,0.97c-0.54,0-0.97-0.43-0.97-0.97C27.48,53.13,27.92,52.69,28.46,52.69z M7.34,15.3
					C6.9,15,6.79,14.39,7.09,13.95C7.4,13.5,8,13.4,8.45,13.7C8.89,14,9,14.61,8.69,15.05C8.39,15.5,7.78,15.61,7.34,15.3z"/>
			</g>
			<g>
				<path class="st4" d="M32.15,32.38c-0.3,0.31-0.73,0.5-1.19,0.5h-0.98c-0.55,0-1.04,0.27-1.34,0.68h-0.36
					c-0.3-0.41-0.79-0.68-1.34-0.68h-0.98c-0.92,0-1.67-0.75-1.67-1.67v-6.7"/>
				<path class="st5" d="M24.29,24.51h8.34v6.7c0,0.46-0.18,0.87-0.48,1.17"/>
				<path d="M33.06,31.19c0,1.16-0.94,2.1-2.1,2.1h-0.98c-0.51,0-0.96,0.31-1.15,0.76h-0.75c-0.19-0.45-0.63-0.76-1.15-0.76h-0.98
					c-1.16,0-2.1-0.94-2.1-2.1v-7.11h9.21V31.19z M32.2,24.94h-7.49v6.25c0,0.68,0.56,1.24,1.24,1.24h0.98
					c0.6,0,1.13,0.25,1.51,0.65h0.03c0.38-0.4,0.91-0.65,1.51-0.65h0.98c0.69,0,1.24-0.56,1.24-1.24V24.94z"/>
			</g>
		</g>
	</g>
	<path d="M72.49,22.48h4.87v0.73h-0.13c-1.5,0-1.73,0.66-1.73,1.56v4.68c0,4.19-3.04,4.98-5.28,4.98c-3.39,0-5.53-1.46-5.53-4.34
		v-5.61c0-0.94-0.26-1.28-1.32-1.28h-0.32v-0.73h5.89v0.73h-0.32c-0.79,0-1.34,0.36-1.34,1.28v5.61c0,2.3,1.7,3.08,3.4,3.08
		c2.47,0,3.69-1.39,3.69-3.46v-4.57c0-1.33-0.38-1.94-1.54-1.94h-0.34V22.48z M86.2,32.47c0,0.92,0.33,1.11,1.07,1.11v0.6h-4.44
		v-0.6c0.77-0.05,1.07-0.58,1.07-2.13v-1.64c0-1.5-0.42-2.09-1.17-2.09c-0.58,0-1.21,0.28-2,0.83v3.82c0,0.85,0.36,1.2,1.11,1.2
		h0.17v0.6h-4.76v-0.6h0.11c0.79,0,1.07-0.34,1.07-1.32v-3.67c0-0.41-0.22-0.66-0.88-0.85l-0.39-0.11v-0.45l3.21-1.09h0.36v1.67
		c1.37-0.9,2.58-1.47,3.48-1.47c1.38,0,1.98,0.98,1.98,3.23V32.47z M93.21,34.18h-4.7v-0.6h0.21c0.77,0,1.05-0.34,1.05-1.32v-3.61
		c0-0.49-0.11-0.62-0.64-0.81l-0.62-0.23v-0.45l3.21-1.07h0.34v6.3c0,0.77,0.31,1.18,1.14,1.18V34.18z M92.33,23.1
		c0,0.75-0.72,1.28-1.49,1.28c-0.87,0-1.5-0.55-1.5-1.28c0-0.68,0.71-1.28,1.5-1.28C91.7,21.82,92.33,22.39,92.33,23.1z M93.42,26.5
		h4.78v0.6h-0.66c-0.4,0-0.56,0.36-0.24,1.05l1.67,3.75l1.47-3.31c0.43-0.98,0.21-1.35-1.11-1.48v-0.6h3.74v0.6
		c-0.98,0.09-1.22,0.34-1.58,1.13l-2.69,6.08h-1.13l-2.8-6.04c-0.36-0.77-0.62-1.07-1.45-1.17V26.5z M110.64,32
		c-1.05,1.48-2.58,2.39-4.02,2.39c-2.05,0-3.44-1.58-3.44-3.85c0-2.48,1.67-4.23,4.02-4.23c1,0,1.78,0.32,2.37,0.9
		c1.11,1.11,0.58,2.16,1.24,2.5v0.54h-5.21c0.15,1.56,1.2,2.75,2.31,2.75c0.7,0,1.37-0.39,2.29-1.35L110.64,32z M108.22,29.51
		c-0.02-1.45-0.53-2.33-1.34-2.33c-0.77,0-1.47,1-1.33,2.33H108.22z M117.04,34.18h-5.22v-0.6h0.13c0.77,0,1.05-0.34,1.05-1.32
		v-3.07c0-0.85-0.11-1.03-0.68-1.26l-0.5-0.21v-0.47l3.08-1.16h0.4v2.1h0.04c0.69-1.35,0.99-1.9,1.63-1.9
		c0.13,0,0.28,0.02,0.38,0.06l1.48,0.55c-0.22,0.79-0.52,1.46-0.9,1.99c-0.58-0.22-1.28-0.47-1.53-0.47c-0.38,0-0.7,0.26-1.11,0.85
		v3.04c0,0.9,0.28,1.26,1.26,1.26h0.49V34.18z M120.01,31.96h0.6c0.32,1.05,1.15,1.62,1.96,1.62c0.53,0,0.97-0.4,0.97-0.86
		c0-1.3-3.53-1.75-3.53-4.03c0-1.43,1.19-2.39,2.95-2.39c0.72,0,1.32,0.11,2.11,0.4l0.04,2.01h-0.6c-0.34-1.03-0.96-1.6-1.77-1.6
		c-0.49,0-0.86,0.3-0.86,0.71c0,1.54,3.7,1.6,3.7,4.18c0,1.39-1,2.37-2.44,2.37c-1.3,0-1.73-0.26-2-0.26
		c-0.11,0-0.22,0.08-0.38,0.25h-0.54L120.01,31.96z M131.82,34.18h-4.7v-0.6h0.21c0.77,0,1.05-0.34,1.05-1.32v-3.61
		c0-0.49-0.11-0.62-0.64-0.81l-0.62-0.23v-0.45l3.22-1.07h0.34v6.3c0,0.77,0.32,1.18,1.15,1.18V34.18z M130.94,23.1
		c0,0.75-0.71,1.28-1.49,1.28c-0.86,0-1.5-0.55-1.5-1.28c0-0.68,0.71-1.28,1.5-1.28C130.32,21.82,130.94,22.39,130.94,23.1z
		 M136.08,32.09c0,0.7,0.32,0.99,0.86,0.99c0.45,0,0.88-0.28,1.43-0.94l0.26,0.53c-0.56,1.01-1.69,1.71-2.73,1.71
		c-1.28,0-2.12-0.72-2.12-2.33v-4.52h-1v-0.49c1.13-0.47,2.41-1.84,2.75-2.89h0.55v2.35h2.46l-0.28,1.03h-2.18V32.09z M147.06,32
		c-1.05,1.48-2.58,2.39-4.03,2.39c-2.04,0-3.44-1.58-3.44-3.85c0-2.48,1.68-4.23,4.02-4.23c1,0,1.79,0.32,2.37,0.9
		c1.11,1.11,0.58,2.16,1.24,2.5v0.54h-5.21c0.15,1.56,1.2,2.75,2.31,2.75c0.7,0,1.38-0.39,2.3-1.35L147.06,32z M144.63,29.51
		c-0.02-1.45-0.53-2.33-1.33-2.33c-0.78,0-1.47,1-1.33,2.33H144.63z M152.8,34.18h-4.7v-0.6h0.21c0.77,0,1.05-0.34,1.05-1.32v-3.61
		c0-0.49-0.11-0.62-0.64-0.81l-0.62-0.23v-0.45l3.22-1.07h0.34v6.3c0,0.77,0.32,1.18,1.15,1.18V34.18z M151.91,23.1
		c0,0.75-0.72,1.28-1.49,1.28c-0.87,0-1.51-0.55-1.51-1.28c0-0.68,0.71-1.28,1.51-1.28C151.29,21.82,151.91,22.39,151.91,23.1z
		 M157.04,32.09c0,0.7,0.32,0.99,0.86,0.99c0.45,0,0.89-0.28,1.43-0.94l0.26,0.53c-0.56,1.01-1.69,1.71-2.72,1.71
		c-1.28,0-2.13-0.72-2.13-2.33v-4.52h-1v-0.49c1.13-0.47,2.41-1.84,2.75-2.89h0.54v2.35h2.46l-0.28,1.03h-2.18V32.09z M173.79,22.43
		h4.88v0.73h-0.13c-1.5,0-1.73,0.66-1.73,1.56v4.68c0,4.2-3.04,4.98-5.28,4.98c-3.39,0-5.53-1.46-5.53-4.34v-5.6
		c0-0.94-0.26-1.28-1.32-1.28h-0.32v-0.73h5.89v0.73h-0.32c-0.79,0-1.34,0.36-1.34,1.28v5.6c0,2.29,1.69,3.08,3.4,3.08
		c2.47,0,3.69-1.39,3.69-3.46V25.1c0-1.33-0.38-1.94-1.54-1.94h-0.34V22.43z M181.66,32.04c0,0.7,0.32,0.99,0.86,0.99
		c0.45,0,0.88-0.28,1.43-0.94l0.26,0.53c-0.56,1.01-1.69,1.71-2.73,1.71c-1.28,0-2.13-0.72-2.13-2.33v-4.51h-0.99V27
		c1.13-0.47,2.41-1.84,2.75-2.89h0.55v2.35h2.46l-0.28,1.04h-2.18V32.04z M190.31,34.12h-5.23v-0.6h0.13c0.77,0,1.05-0.34,1.05-1.31
		v-3.07c0-0.85-0.11-1.04-0.67-1.26l-0.51-0.21v-0.47l3.08-1.17h0.4v2.1h0.04c0.69-1.35,1-1.9,1.64-1.9c0.13,0,0.28,0.02,0.37,0.06
		l1.49,0.55c-0.22,0.79-0.53,1.46-0.9,1.99c-0.59-0.23-1.28-0.47-1.53-0.47c-0.38,0-0.69,0.26-1.11,0.85v3.05
		c0,0.9,0.28,1.26,1.26,1.26h0.49V34.12z M200.27,31.94c-1.05,1.48-2.57,2.39-4.02,2.39c-2.05,0-3.44-1.58-3.44-3.85
		c0-2.48,1.68-4.23,4.02-4.23c1,0,1.79,0.32,2.37,0.9c1.11,1.11,0.58,2.16,1.24,2.5v0.54h-5.21c0.15,1.56,1.2,2.75,2.31,2.75
		c0.69,0,1.37-0.39,2.3-1.36L200.27,31.94z M197.85,29.46c-0.02-1.45-0.53-2.33-1.34-2.33c-0.77,0-1.46,0.99-1.33,2.33H197.85z
		 M209.36,32.32c-0.87,1.32-2.18,2.01-3.84,2.01c-2.29,0-3.95-1.56-3.95-3.72c0-2.46,2.13-4.36,4.87-4.36c1.62,0,2.84,0.68,2.84,1.6
		c0,0.56-0.38,0.94-0.96,0.94c-1.31,0-1.59-1.67-2.68-1.67c-0.94,0-1.58,1.15-1.58,2.84c0,2.03,0.96,3.4,2.35,3.4
		c0.85,0,1.64-0.43,2.41-1.33L209.36,32.32z M213.44,32.23c0,1.18,0.32,1.3,0.98,1.3h0.19v0.6h-4.76v-0.6h0.27
		c0.96,0,1.03-0.38,1.03-1.37v-8.22c0-0.54-0.1-0.68-0.6-0.85l-0.55-0.19v-0.43l2.99-0.92h0.45v6.13c1.05-0.73,2.41-1.43,3.38-1.43
		c1.38,0,2.05,1.11,2.05,3.33v2.49c0,1.11,0.13,1.47,0.85,1.47h0.18v0.6h-4.44v-0.6h0.15c0.79,0,0.96-0.3,0.96-1.37v-2.84
		c0-1.01-0.47-1.65-1.22-1.65c-0.51,0-1.26,0.28-1.92,0.71V32.23z M224.01,32.04c0,0.7,0.32,0.99,0.86,0.99
		c0.45,0,0.88-0.28,1.43-0.94l0.26,0.53c-0.57,1.01-1.69,1.71-2.73,1.71c-1.28,0-2.12-0.72-2.12-2.33v-4.51h-1V27
		c1.13-0.47,2.41-1.84,2.74-2.89h0.55v2.35h2.46l-0.28,1.04h-2.18V32.04z"/>
</g>
</svg>
